<svg width="24" height="24" viewBox="0 0 24 24" fill="none" xmlns="http://www.w3.org/2000/svg">
<path d="M12.2728 2.30304C7.90914 2.30304 4.63641 5.52122 4.63641 9.77577C4.63641 16.5939 11.6728 21.1212 12.0001 21.3394L12.2728 21.503L12.5455 21.3394C12.8182 21.1212 19.9091 16.5939 19.9091 9.77577C19.9091 5.52122 16.6364 2.30304 12.2728 2.30304ZM12.2728 20.1939C11.6182 19.7576 10.0364 18.5576 8.61823 16.8121C6.70914 14.5212 5.72732 12.1212 5.72732 9.77577C5.72732 6.12122 8.56369 3.39395 12.2728 3.39395C15.9819 3.39395 18.8182 6.12122 18.8182 9.77577C18.8182 12.1212 17.8364 14.5212 15.9273 16.8121C14.5091 18.5576 12.9273 19.7576 12.2728 20.1939Z" fill="white"/>
<path d="M12.2727 12.1212C13.6283 12.1212 14.7273 11.0223 14.7273 9.66667C14.7273 8.31107 13.6283 7.21213 12.2727 7.21213C10.9171 7.21213 9.81818 8.31107 9.81818 9.66667C9.81818 11.0223 10.9171 12.1212 12.2727 12.1212Z" fill="white"/>
</svg>
