<svg width="48" height="48" viewBox="0 0 48 48" fill="none" xmlns="http://www.w3.org/2000/svg">
<path d="M1.30859 0.872681H39.7086V37.5272H1.30859V0.872681Z" fill="#C99B50"/>
<path d="M3.92773 24.4364H10.9096V26.1819H3.92773V24.4364Z" fill="#BA8630"/>
<path d="M3.92773 27.9274H9.1641V29.6728H3.92773V27.9274Z" fill="#BA8630"/>
<path d="M3.92773 33.1637H5.67319V34.9091H3.92773V33.1637Z" fill="#BA8630"/>
<path d="M7.41895 33.1637H9.1644V34.9091H7.41895V33.1637Z" fill="#BA8630"/>
<path d="M10.9092 33.1637H12.6546V34.9091H10.9092V33.1637Z" fill="#BA8630"/>
<path d="M1.30859 0.872681H39.7086V12.2181H1.30859V0.872681Z" fill="#DAA857"/>
<path d="M17.0186 0.872681H24.0004V15.709H17.0186V0.872681Z" fill="#B8EAEE"/>
<path d="M17.0186 12.2181H24.0004V15.709H17.0186V12.2181Z" fill="#B3E4E8"/>
<path d="M24 19.2H46.6909V47.1272H24V19.2Z" fill="#A88E74"/>
<path d="M27.4912 22.6909H43.2003V43.6364H27.4912V22.6909Z" fill="#E4E4E2"/>
<path d="M37.0908 29.6727H40.5817V31.4182H37.0908V29.6727Z" fill="#CBCBCB"/>
<path d="M37.0908 26.1819H40.5817V27.9273H37.0908V26.1819Z" fill="#CBCBCB"/>
<path d="M37.0908 34.0364H40.5817V35.7818H37.0908V34.0364Z" fill="#CBCBCB"/>
<path d="M37.0908 37.5272H40.5817V39.2727H37.0908V37.5272Z" fill="#CBCBCB"/>
<path d="M32.7277 31.4181C32.4963 31.4181 32.2743 31.3261 32.1107 31.1624L30.3652 29.417L31.5993 28.1829L32.553 29.1379L34.5963 25.7339L36.0921 26.633L33.4739 30.9967C33.3171 31.2592 33.0333 31.4194 32.7277 31.4181Z" fill="#8DC79D"/>
<path d="M30.9814 34.9091H34.4724V38.4H30.9814V34.9091Z" fill="#CBCBCB"/>
<path d="M37.0912 19.2V16.7161C37.1185 15.8135 36.4865 15.0248 35.5997 14.8547C35.0977 14.781 34.5885 14.9293 34.2045 15.2608C33.821 15.5924 33.6003 16.0748 33.6003 16.5819V19.2H30.1094V21.8182C30.1094 22.7821 30.8909 23.5637 31.8548 23.5637H38.8367C39.8006 23.5637 40.5821 22.7821 40.5821 21.8182V19.2H37.0912Z" fill="#3057B5"/>
<path d="M3.92773 24.4364H10.9096V26.1819H3.92773V24.4364Z" fill="#333333"/>
<path d="M3.92773 27.9272H9.1641V29.6727H3.92773V27.9272Z" fill="#333333"/>
<path d="M3.92773 33.1636H5.67319V34.909H3.92773V33.1636Z" fill="#333333"/>
<path d="M7.41797 33.1636H9.16342V34.909H7.41797V33.1636Z" fill="#333333"/>
<path d="M10.9092 33.1636H12.6546V34.909H10.9092V33.1636Z" fill="#333333"/>
<path d="M37.0908 29.6727H40.5817V31.4182H37.0908V29.6727Z" fill="#333333"/>
<path d="M37.0908 26.1819H40.5817V27.9273H37.0908V26.1819Z" fill="#333333"/>
<path d="M37.0908 34.0364H40.5817V35.7818H37.0908V34.0364Z" fill="#333333"/>
<path d="M37.0908 37.5272H40.5817V39.2727H37.0908V37.5272Z" fill="#333333"/>
<path d="M40.582 0.872727C40.582 0.390767 40.1912 0 39.7093 0H1.30925C0.82729 0 0.436523 0.390767 0.436523 0.872727V37.5273C0.436523 38.0092 0.82729 38.4 1.30925 38.4H23.1274V47.1273C23.1274 47.6092 23.5182 48 24.0002 48H46.6911C47.173 48 47.5638 47.6092 47.5638 47.1273V19.2C47.5638 18.718 47.173 18.3273 46.6911 18.3273H40.582V0.872727ZM38.8365 11.3455H24.8729V1.74545H38.8365V11.3455ZM17.8911 13.0909H23.1274V14.8364H17.8911V13.0909ZM17.8911 11.3455V1.74545H23.1274V11.3455H17.8911ZM16.1456 1.74545V11.3455H2.18198V1.74545H16.1456ZM2.18198 36.6545V13.0909H16.1456V15.7091C16.1456 16.1911 16.5364 16.5818 17.0183 16.5818H24.0002C24.4821 16.5818 24.8729 16.1911 24.8729 15.7091V13.0909H38.8365V18.3273H37.9638V16.7161C37.9941 15.378 37.0408 14.2189 35.7219 13.9896C34.9693 13.8805 34.207 14.1038 33.6321 14.6011C33.0573 15.0989 32.727 15.8216 32.7274 16.5818V18.3273H24.0002C23.5182 18.3273 23.1274 18.718 23.1274 19.2V36.6545H2.18198ZM31.8547 24.4364H38.8365C39.5772 24.4342 40.2816 24.1168 40.7742 23.5636H42.3274V42.7636H28.3638V23.5636H29.9171C30.4097 24.1168 31.1141 24.4342 31.8547 24.4364ZM39.7093 21.8182C39.7093 22.3001 39.3185 22.6909 38.8365 22.6909H31.8547C31.3727 22.6909 30.982 22.3001 30.982 21.8182V20.0727H33.6002C34.0821 20.0727 34.4729 19.682 34.4729 19.2V16.5818C34.4729 16.3274 34.5837 16.0854 34.7767 15.9196C34.9698 15.7534 35.2259 15.6801 35.4773 15.7189C35.9316 15.8301 36.2426 16.249 36.2183 16.7161V19.2C36.2183 19.682 36.6091 20.0727 37.0911 20.0727H39.7093V21.8182ZM45.8183 46.2545H24.8729V20.0727H29.2365V21.8182H27.4911C27.0091 21.8182 26.6183 22.2089 26.6183 22.6909V43.6364C26.6183 44.1183 27.0091 44.5091 27.4911 44.5091H43.2002C43.6821 44.5091 44.0729 44.1183 44.0729 43.6364V22.6909C44.0729 22.2089 43.6821 21.8182 43.2002 21.8182H41.4547V20.0727H45.8183V46.2545Z" fill="#333333"/>
<path d="M32.7277 31.4181C33.0346 31.4194 33.3188 31.2583 33.4756 30.995L36.0938 26.6313L34.598 25.7322L32.5547 29.1357L31.5993 28.1812L30.3652 29.4153L32.1107 31.1607C32.2739 31.3248 32.4959 31.4177 32.7277 31.4181Z" fill="#333333"/>
<path d="M30.9821 39.2727H34.473C34.955 39.2727 35.3457 38.882 35.3457 38.4V34.9091C35.3457 34.4271 34.955 34.0364 34.473 34.0364H30.9821C30.5001 34.0364 30.1094 34.4271 30.1094 34.9091V38.4C30.1094 38.882 30.5001 39.2727 30.9821 39.2727ZM31.8548 35.7818H33.6003V37.5273H31.8548V35.7818Z" fill="#333333"/>
</svg>
