<svg width="48" height="48" viewBox="0 0 48 48" fill="none" xmlns="http://www.w3.org/2000/svg">
<g clip-path="url(#clip0)">
<path d="M31.8476 23.936C31.3717 23.3251 30.6252 22.9886 29.8523 23.0362C29.0793 23.0842 28.3801 23.5109 27.9835 24.1757C27.3846 23.1775 26.1451 22.7684 25.0696 23.2146C23.9945 23.6608 23.4085 24.8273 23.6923 25.9563L23.7165 26.0484C23.9765 27.0955 24.9173 27.8306 25.9968 27.8286H29.9702C31.0496 27.8298 31.9908 27.0951 32.2512 26.0473L32.2754 25.9524C32.4527 25.2501 32.2949 24.5056 31.8476 23.936ZM25.9968 26.2296C25.6505 26.2296 25.3491 25.9934 25.2667 25.6573L25.2437 25.5655C25.1426 25.1627 25.3874 24.7543 25.7899 24.6536C26.1927 24.5525 26.6011 24.7972 26.7018 25.2001L26.9595 26.2296H25.9968ZM30.7232 25.5655L30.6994 25.6596C30.6163 25.9946 30.3157 26.23 29.9702 26.2296H29.011L29.2682 25.2001C29.3694 24.7972 29.7773 24.5525 30.1802 24.6536C30.5827 24.7543 30.8275 25.1627 30.7267 25.5655H30.7232Z" fill="#E06661"/>
<path d="M25.5849 13.4372H28.0124L33.609 15.0362L40.0052 13.4372L41.5753 10.2984V7.041L40.0052 4.64244L32.1361 1.47715C30.799 0.939969 29.3171 0.883363 27.9429 1.31748L18.3604 5.44196H25.5849V13.4372Z" fill="#FDC9A6"/>
<path d="M38.5916 36.6233H19.9883L11.9931 34.2247L7.99553 34.8134L6.39648 37.4228V41.4204L7.99553 43.6082L14.7458 46.3264C16.8063 47.1556 19.0908 47.2439 21.2091 46.5767L39.2479 40.8946C40.1583 40.6072 40.777 39.7624 40.7759 38.8079C40.7759 37.6012 39.7979 36.6233 38.5916 36.6233Z" fill="#FDC9A6"/>
<path d="M21.5869 27.0291H34.3792V39.8214H21.5869V27.0291Z" fill="#E8B35C"/>
<path d="M0.799805 5.44202H26.3845V19.8334H0.799805V5.44202Z" fill="#85BC94"/>
<path d="M21.5869 32.6256H34.3792V34.2246H21.5869V32.6256Z" fill="#B6534F"/>
<path d="M17.5899 12.6377C17.5899 14.8458 15.8 16.6353 13.5923 16.6353C11.3847 16.6353 9.59473 14.8458 9.59473 12.6377C9.59473 10.4301 11.3847 8.64014 13.5923 8.64014C15.8 8.64014 17.5899 10.4301 17.5899 12.6377Z" fill="#8DC79D"/>
<path d="M0.799805 9.43962V5.44202H4.79741C4.79741 7.65007 3.00746 9.43962 0.799805 9.43962Z" fill="#8DC79D"/>
<path d="M0.799805 15.8358V19.8334H4.79741C4.79741 17.6258 3.00746 15.8358 0.799805 15.8358Z" fill="#8DC79D"/>
<path d="M26.3843 9.43962V5.44202H22.3867C22.3867 7.65007 24.1767 9.43962 26.3843 9.43962Z" fill="#8DC79D"/>
<path d="M26.3843 15.8358V19.8334H22.3867C22.3867 17.6258 24.1767 15.8358 26.3843 15.8358Z" fill="#8DC79D"/>
<path d="M35.2081 8.64014H24.0148C22.6898 8.64014 21.6162 9.7141 21.6162 11.0387C21.6162 12.3637 22.6898 13.4373 24.0148 13.4373H28.0124L32.6576 14.7646C33.2772 14.9418 33.9362 14.9278 34.5475 14.724L36.0076 14.2368L35.2081 8.64014Z" fill="#FDC9A6"/>
<path d="M27.1836 26.2295H28.7826V39.8213H27.1836V26.2295Z" fill="#E06661"/>
<path d="M12.7927 39.8214H23.986C25.3106 39.8214 26.3845 38.7478 26.3845 37.4228C26.3845 36.0982 25.3106 35.0242 23.986 35.0242H19.9884L15.3431 33.6973C14.7236 33.5201 14.0646 33.5341 13.4532 33.7379L11.9932 34.2247L12.7927 39.8214Z" fill="#FDC9A6"/>
<path d="M0.799805 34.8135H7.99549V45.418H0.799805V34.8135Z" fill="#3057B5"/>
<path d="M40.0049 3.04346H47.2006V13.4372H40.0049V3.04346Z" fill="#5D9AA4"/>
<path d="M47.2006 2.24389H40.0049C39.5634 2.24389 39.2054 2.60187 39.2054 3.04341V3.45917L32.434 0.734634C30.9248 0.129528 29.2531 0.0651139 27.7017 0.552322C27.6764 0.56091 27.6506 0.569889 27.6217 0.581211L18.1961 4.64245H0.79952C0.357988 4.64245 0 5.00043 0 5.44197V19.8333C0 20.2749 0.357988 20.6329 0.79952 20.6329H26.3842C26.8257 20.6329 27.1837 20.2749 27.1837 19.8333V14.2367H27.9032L33.3921 15.8057C33.4635 15.8256 33.5377 15.8357 33.6119 15.8357C33.6774 15.8357 33.7426 15.8279 33.8063 15.8119L40.1025 14.2367H47.2006C47.6421 14.2367 48.0001 13.8787 48.0001 13.4372V3.04341C48.0001 2.60187 47.6421 2.24389 47.2006 2.24389ZM25.5846 7.84053H24.2862C23.7974 7.42203 23.4484 6.86416 23.286 6.24149H25.5846V7.84053ZM22.4994 8.24029C21.2084 8.93167 20.5548 10.4132 20.9144 11.8327C21.2739 13.2521 22.554 14.2437 24.0184 14.2367H25.5846V15.1084C23.5757 15.4516 22.0024 17.0253 21.6589 19.0338H5.52481C5.18126 17.0253 3.60799 15.4516 1.59904 15.1084V10.1673C3.60799 9.8241 5.18126 8.25044 5.52481 6.24149H21.6671C21.7893 6.96254 22.0739 7.64572 22.4994 8.24029ZM3.884 6.24149C3.59159 7.36035 2.7179 8.23404 1.59904 8.52683V6.24149H3.884ZM1.59904 16.7489C2.7179 17.0416 3.59159 17.9153 3.884 19.0338H1.59904V16.7489ZM23.2997 19.0338C23.5921 17.9153 24.4658 17.0416 25.5846 16.7489V19.0338H23.2997ZM33.6224 14.209L28.2319 12.6681C28.1604 12.6482 28.0863 12.638 28.0121 12.6376H24.0145C23.1314 12.6376 22.4154 11.9221 22.4154 11.0386C22.4154 10.1555 23.1314 9.43957 24.0145 9.43957H29.9469C30.3884 9.43957 30.7464 9.08158 30.7464 8.64005C30.7464 8.19852 30.3884 7.84053 29.9469 7.84053H27.1837V5.44197C27.1837 5.00043 26.8257 4.64245 26.3842 4.64245H22.237L28.2229 2.06587C29.4109 1.70163 30.6878 1.75551 31.841 2.21851L39.2085 5.18236V12.8137L33.6224 14.209ZM46.4011 12.6376H40.8044V3.84293H46.4011V12.6376Z" fill="#333333"/>
<path d="M38.5913 35.8238H35.1789V27.0291C35.1789 26.5876 34.8209 26.2296 34.3794 26.2296H32.1885C32.2096 26.1691 32.235 26.1105 32.251 26.0473L32.2752 25.9524C32.5602 24.8226 31.9738 23.6546 30.8971 23.2091C29.8208 22.7633 28.5801 23.1744 27.9832 24.175C27.3844 23.1767 26.1449 22.7676 25.0693 23.2138C23.9942 23.66 23.4082 24.8265 23.692 25.9555L23.7162 26.0473C23.7315 26.1105 23.7576 26.1691 23.7779 26.2296H21.587C21.1455 26.2296 20.7875 26.5876 20.7875 27.0291V34.2248H20.1L15.5625 32.9283C14.788 32.7066 13.9643 32.7245 13.1999 32.9794L11.8042 33.4448L7.93664 34.014H0.79952C0.357988 34.014 0 34.372 0 34.8135V45.4181C0 45.8596 0.357988 46.2176 0.79952 46.2176H7.9952C8.43674 46.2176 8.79472 45.8596 8.79472 45.4181V44.7915L14.4464 47.0659C16.6794 47.9619 19.1534 48.0571 21.4489 47.3365L39.4876 41.6547C40.8919 41.2116 41.7632 39.8105 41.5395 38.3551C41.3158 36.8997 40.0639 35.825 38.5913 35.8238ZM23.9856 34.2248H27.1837V39.0219H26.739C27.0268 38.5382 27.1806 37.9862 27.1837 37.4229C27.1837 35.6567 25.7517 34.2248 23.9856 34.2248ZM28.7827 34.2248H33.5799V39.0219H28.7827V34.2248ZM33.5799 32.6257H28.7827V27.8286H33.5799V32.6257ZM29.2625 25.2001C29.3632 24.7972 29.7716 24.5525 30.1745 24.6536C30.577 24.7543 30.8217 25.1627 30.7206 25.5655L30.6968 25.6596C30.6137 25.9946 30.3127 26.23 29.9676 26.2296H29.0084L29.2625 25.2001ZM25.2649 25.6573L25.2415 25.5655C25.1408 25.1627 25.3856 24.7543 25.788 24.6536C26.1909 24.5525 26.5993 24.7972 26.7 25.2001L26.9592 26.2296H25.9996C25.6518 26.2319 25.3477 25.9954 25.2649 25.6573ZM25.9965 27.8286H27.1837V32.6257H22.3866V27.8286H25.9965ZM7.19568 44.6186H1.59904V35.613H7.19568V44.6186ZM39.0071 40.1294L20.9683 45.8108C19.0261 46.421 16.9324 46.3402 15.0429 45.582L8.79472 43.0683V35.5041L12.1095 35.0157V35.0005C12.156 34.9993 12.2024 34.9935 12.2477 34.9837L13.7086 34.4969C14.1669 34.3431 14.6611 34.3325 15.1253 34.4664L19.7706 35.7938C19.8412 35.8137 19.9146 35.8238 19.988 35.8238H23.9856C24.8687 35.8238 25.5847 36.5398 25.5847 37.4229C25.5847 38.3063 24.8687 39.0219 23.9856 39.0219H18.3601C17.9185 39.0219 17.5606 39.3799 17.5606 39.8214C17.5606 40.263 17.9185 40.621 18.3601 40.621H34.3794C34.8209 40.621 35.1789 40.263 35.1789 39.8214V37.4229H38.5913C39.2741 37.4244 39.8542 37.9234 39.9577 38.5983C40.0615 39.2733 39.6578 39.9229 39.0071 40.1294Z" fill="#333333"/>
<path d="M13.592 17.4348C16.2412 17.4348 18.3892 15.2873 18.3892 12.6377C18.3892 9.98851 16.2412 7.84058 13.592 7.84058C10.9429 7.84058 8.79492 9.98851 8.79492 12.6377C8.79765 15.2861 10.9436 17.4325 13.592 17.4348ZM13.592 9.43962C15.3582 9.43962 16.7901 10.8716 16.7901 12.6377C16.7901 14.4042 15.3582 15.8358 13.592 15.8358C11.8259 15.8358 10.394 14.4042 10.394 12.6377C10.394 10.8716 11.8259 9.43962 13.592 9.43962Z" fill="#333333"/>
</g>
<defs>
<clipPath id="clip0">
<rect width="48" height="48" fill="white"/>
</clipPath>
</defs>
</svg>
