<svg width="48" height="48" viewBox="0 0 48 48" fill="none" xmlns="http://www.w3.org/2000/svg">
<g clip-path="url(#clip0)">
<path d="M42.2237 23.9997L44.515 23.0735C46.6947 22.1913 47.7653 19.725 46.9214 17.5302L41.5579 3.58736C40.6996 1.36378 38.2012 0.25709 35.9776 1.11543C35.9461 1.12762 35.9148 1.14011 35.8836 1.15299L9.0856 12.2619C6.94104 13.1535 5.8868 15.5825 6.69998 17.758L7.77891 20.6351L9.58989 25.5981H36.7627L42.2237 23.9997Z" fill="#429471"/>
<path d="M13.706 20.6376L12.0117 16.4018L18.7889 13.0132L20.4832 17.2489L13.706 20.6376Z" fill="#AAC16B"/>
<path d="M33.7164 16.5146L41.3397 13.1232L41.9894 14.5836L34.3661 17.975L33.7164 16.5146Z" fill="#028260"/>
<path d="M28.6201 14.8288L39.6325 9.74622L40.302 11.1968L29.2896 16.2794L28.6201 14.8288Z" fill="#028260"/>
<path d="M44.5156 23.0735C44.5867 23.0447 44.6466 23.0008 44.7154 22.9688C44.5013 20.8336 42.7055 19.207 40.5595 19.2046H7.23926L7.77632 20.6376L9.59051 25.5982H36.7633L42.2243 23.9998L44.5156 23.0735Z" fill="#028260"/>
<path d="M4.99463 20.803H38.9607C41.278 20.803 43.1565 22.6815 43.1565 24.9988V42.9808C43.1565 45.2981 41.278 47.1766 38.9607 47.1766H4.99463C2.67735 47.1766 0.798828 45.2981 0.798828 42.9808V24.9988C0.798828 22.6815 2.67735 20.803 4.99463 20.803Z" fill="#3057B5"/>
<path d="M31.1683 44.779C28.5199 44.779 26.373 42.6321 26.373 39.9838C26.373 37.3354 28.5199 35.1886 31.1683 35.1886C33.8166 35.1886 35.9635 37.3354 35.9635 39.9838C35.9609 42.6309 33.8155 44.7763 31.1683 44.779ZM31.1683 36.787C29.4027 36.787 27.9714 38.2183 27.9714 39.9838C27.9714 41.7493 29.4027 43.1806 31.1683 43.1806C32.9338 43.1806 34.3651 41.7493 34.3651 39.9838C34.3651 38.2183 32.9338 36.787 31.1683 36.787Z" fill="#6C7175"/>
<path d="M35.9632 44.779C33.3148 44.779 31.168 42.6321 31.168 39.9838C31.168 37.3354 33.3148 35.1886 35.9632 35.1886C38.6115 35.1886 40.7584 37.3354 40.7584 39.9838C40.7558 42.6309 38.6104 44.7763 35.9632 44.779ZM35.9632 36.787C34.1976 36.787 32.7664 38.2183 32.7664 39.9838C32.7664 41.7493 34.1976 43.1806 35.9632 43.1806C37.7287 43.1806 39.16 41.7493 39.16 39.9838C39.16 38.2183 37.7287 36.787 35.9632 36.787Z" fill="#6C7175"/>
<path d="M0.798828 25.5981H43.1565V31.9917H0.798828V25.5981Z" fill="#6C7175"/>
<path d="M4.99501 47.9759H38.9611C41.7184 47.9728 43.953 45.7382 43.9561 42.9809V24.9988C43.9545 24.7277 43.9304 24.4572 43.8841 24.1901L44.812 23.8144C47.3865 22.7591 48.6519 19.845 47.6651 17.2434L42.3025 3.30055C41.2863 0.664782 38.3258 -0.648105 35.69 0.368079C35.6518 0.382864 35.6136 0.398049 35.5756 0.413733L8.77683 11.5226C6.22508 12.5694 4.97093 15.4578 5.94845 18.0369L6.68532 20.0037H4.99501C2.23766 20.0068 0.0030969 22.2414 0 24.9987V42.9808C0.0030969 45.7382 2.23766 47.9728 4.99501 47.9759ZM38.9611 46.3775H4.99501C3.11998 46.3753 1.6006 44.8559 1.5984 42.9809V32.7911H42.3577V42.9809C42.3555 44.8558 40.8361 46.3753 38.9611 46.3775ZM1.5984 26.3974H42.3577V31.1927H1.5984V26.3974ZM7.44536 17.48C6.77453 15.7079 7.63617 13.7239 9.38901 13.0044L36.187 1.89555C37.9785 1.15269 40.0331 2.00274 40.776 3.79425C40.7876 3.82213 40.7988 3.8502 40.8096 3.87837L46.1722 17.8212C46.8507 19.6089 45.9816 21.6117 44.2126 22.3375L43.3774 22.6756C42.5148 21.0348 40.8148 20.0064 38.9611 20.0038H16.7608L20.8408 17.9635C21.2128 17.7778 21.3803 17.3378 21.226 16.9517L19.5309 12.7159C19.367 12.3061 18.9019 12.1067 18.4921 12.2706C18.4714 12.2789 18.4512 12.288 18.4312 12.2979L11.6547 15.6882C11.283 15.8742 11.1159 16.314 11.2703 16.6999L12.5922 20.0038H8.39161L7.44536 17.48ZM13.0278 16.7879L18.3696 14.1161L19.4677 16.863L14.1259 19.5339L13.0278 16.7879ZM4.99501 21.6022H38.9611C40.7549 21.6073 42.2346 23.0082 42.3377 24.799H1.61838C1.72148 23.0081 3.2012 21.6072 4.99501 21.6022Z" fill="black"/>
<path d="M35.9638 35.1887C35.1213 35.1891 34.2939 35.4129 33.5662 35.8376C31.2763 34.5072 28.3414 35.2851 27.0111 37.575C25.6807 39.8649 26.4585 42.7998 28.7484 44.1301C30.2377 44.9954 32.0768 44.9954 33.5661 44.1301C35.856 45.4605 38.7909 44.6826 40.1213 42.3927C41.4516 40.1027 40.6737 37.1679 38.3838 35.8375C37.6489 35.4105 36.8138 35.1867 35.9638 35.1887ZM33.5662 42.0762C32.5006 40.8848 32.5006 39.083 33.5662 37.8916C34.6319 39.0829 34.6319 40.8848 33.5662 42.0762ZM27.9718 39.9839C27.9718 38.2183 29.4031 36.7871 31.1686 36.7871C31.531 36.7909 31.89 36.8568 32.23 36.9821C30.815 38.7331 30.815 41.2346 32.23 42.9857C31.89 43.1109 31.531 43.1769 31.1686 43.1807C29.4031 43.1807 27.9718 41.7494 27.9718 39.9839ZM35.9638 43.1807C35.6015 43.1769 35.2424 43.1109 34.9025 42.9857C36.3175 41.2346 36.3175 38.7331 34.9025 36.9821C35.2424 36.8568 35.6015 36.7909 35.9638 36.7871C37.7294 36.7871 39.1606 38.2183 39.1606 39.9839C39.1606 41.7494 37.7294 43.1807 35.9638 43.1807Z" fill="black"/>
<path d="M33.7139 16.5183L41.3383 13.1295L41.9876 14.5902L34.3631 17.979L33.7139 16.5183Z" fill="black"/>
<path d="M28.6211 14.8288L39.6335 9.74622L40.303 11.1968L29.2906 16.2794L28.6211 14.8288Z" fill="black"/>
</g>
<defs>
<clipPath id="clip0">
<rect width="48" height="48" fill="white"/>
</clipPath>
</defs>
</svg>
