<svg width="24" height="24" viewBox="0 0 24 24" fill="none" xmlns="http://www.w3.org/2000/svg">
<path fill-rule="evenodd" clip-rule="evenodd" d="M4.4952 5.31444L4.21313 2.19752C4.17827 1.82199 3.86142 1.53345 3.48695 1.53345H1.59645C1.19333 1.53345 0.866699 1.86008 0.866699 2.2632C0.866699 2.66632 1.19333 2.99295 1.59645 2.99295H2.8198L2.8351 3.16401C2.83561 3.1675 2.83612 3.17151 2.83612 3.17151L2.83636 3.17378C2.83717 3.18175 2.84207 3.23554 2.85212 3.34668C2.87242 3.57126 2.91436 4.03716 2.98863 4.86355C3.13715 6.51637 3.41497 9.61141 3.90752 15.1025C3.97802 15.907 4.41602 16.7909 5.17381 17.3896L5.33012 17.5131L5.20724 17.6699C3.86671 19.3806 5.09272 21.9068 7.27238 21.9068C9.08247 21.9068 10.3572 20.1003 9.73644 18.3942L9.63879 18.1258H15.3059L15.2083 18.3942C14.5875 20.1003 15.8622 21.9068 17.6723 21.9068C19.1201 21.9068 20.2926 20.7303 20.2926 19.2865C20.2926 17.843 19.1159 16.6663 17.6723 16.6663H7.2768C6.48659 16.6663 5.79973 16.1918 5.50334 15.4953L5.39213 15.234L20.5526 14.3451C20.8699 14.3278 21.1387 14.1035 21.2197 13.7915L21.2198 13.7908L23.1099 6.22594L23.1102 6.22489C23.2283 5.76278 22.8771 5.31444 22.4052 5.31444H4.4952ZM19.9338 12.9118L5.25764 13.7729L4.62733 6.77838H21.4659L19.9338 12.9118ZM7.27238 20.4473C6.63063 20.4473 6.11163 19.9283 6.11163 19.2865C6.11163 18.6448 6.63063 18.1258 7.27238 18.1258C7.91412 18.1258 8.43312 18.6448 8.43312 19.2865C8.43312 19.9283 7.91412 20.4473 7.27238 20.4473ZM17.6768 20.4473C17.035 20.4473 16.516 19.9283 16.516 19.2865C16.516 18.6448 17.035 18.1258 17.6768 18.1258C18.3185 18.1258 18.8375 18.6448 18.8375 19.2865C18.8375 19.9289 18.3135 20.4473 17.6768 20.4473Z" fill="white"/>
</svg>
