<svg width="154" height="96" viewBox="0 0 154 96" fill="none" xmlns="http://www.w3.org/2000/svg">
<rect y="0.291016" width="17.912" height="17.912" fill="#EBD7A3"/>
<rect y="19.1981" width="17.912" height="17.912" fill="#EBD7A3"/>
<rect y="38.1052" width="17.912" height="17.912" fill="#EBD7A3"/>
<rect y="57.0123" width="17.912" height="18.9071" fill="#EBD7A3"/>
<rect y="76.9146" width="17.912" height="18.9071" fill="#EBD7A3"/>
<rect x="18.9072" y="0.291016" width="17.912" height="17.912" fill="#EBD7A3"/>
<rect x="18.9072" y="19.1981" width="17.912" height="17.912" fill="#EBD7A3"/>
<rect x="18.9072" y="38.1052" width="17.912" height="17.912" fill="#EBD7A3"/>
<rect x="18.9072" y="57.0123" width="17.912" height="18.9071" fill="#EBD7A3"/>
<rect x="18.9072" y="76.9146" width="17.912" height="18.9071" fill="#EBD7A3"/>
<rect x="37.8145" y="0.291016" width="17.912" height="17.912" fill="#EBD7A3"/>
<rect x="37.8145" y="19.1981" width="17.912" height="17.912" fill="#EBD7A3"/>
<rect x="37.8145" y="38.1052" width="17.912" height="17.912" fill="#EBD7A3"/>
<rect x="37.8145" y="57.0123" width="17.912" height="18.9071" fill="#EBD7A3"/>
<rect x="37.8145" y="76.9146" width="17.912" height="18.9071" fill="#EBD7A3"/>
<rect x="56.7217" y="0.291016" width="17.912" height="17.912" fill="#EBD7A3"/>
<rect x="56.7217" y="19.1981" width="17.912" height="17.912" fill="#EBD7A3"/>
<rect x="56.7217" y="38.1052" width="17.912" height="17.912" fill="#EBD7A3"/>
<rect x="56.7217" y="57.0123" width="17.912" height="18.9071" fill="#EBD7A3"/>
<rect x="56.7217" y="76.9146" width="17.912" height="18.9071" fill="#EBD7A3"/>
<rect x="75.6279" y="0.291016" width="17.912" height="17.912" fill="#EBD7A3"/>
<rect x="75.6279" y="19.1981" width="17.912" height="17.912" fill="#EBD7A3"/>
<rect x="75.6279" y="38.1052" width="17.912" height="17.912" fill="#EBD7A3"/>
<rect x="75.6279" y="57.0123" width="17.912" height="18.9071" fill="#EBD7A3"/>
<rect x="75.6279" y="76.9146" width="17.912" height="18.9071" fill="#EBD7A3"/>
<rect x="94.5352" y="0.291016" width="18.9071" height="17.912" fill="#EBD7A3"/>
<rect x="94.5352" y="19.1981" width="18.9071" height="17.912" fill="#EBD7A3"/>
<rect x="94.5352" y="38.1052" width="18.9071" height="17.912" fill="#EBD7A3"/>
<rect x="94.5352" y="57.0123" width="18.9071" height="18.9071" fill="#EBD7A3"/>
<rect x="94.5352" y="76.9146" width="18.9071" height="18.9071" fill="#EBD7A3"/>
<rect x="114.438" y="0.291016" width="18.9071" height="17.912" fill="#EBD7A3"/>
<rect x="114.438" y="19.1981" width="18.9071" height="17.912" fill="#EBD7A3"/>
<rect x="114.438" y="38.1052" width="18.9071" height="17.912" fill="#EBD7A3"/>
<rect x="114.438" y="57.0123" width="18.9071" height="18.9071" fill="#EBD7A3"/>
<rect x="114.438" y="76.9146" width="18.9071" height="18.9071" fill="#EBD7A3"/>
<rect x="134.34" y="0.291016" width="18.9071" height="17.912" fill="#EBD7A3"/>
<rect x="134.34" y="19.1981" width="18.9071" height="17.912" fill="#EBD7A3"/>
<rect x="134.34" y="38.1052" width="18.9071" height="17.912" fill="#EBD7A3"/>
<rect x="134.34" y="57.0123" width="18.9071" height="18.9071" fill="#EBD7A3"/>
<rect x="134.34" y="76.9146" width="18.9071" height="18.9071" fill="#EBD7A3"/>
</svg>
