<svg width="100" height="100" viewBox="0 0 100 100" fill="none" xmlns="http://www.w3.org/2000/svg">
<g clip-path="url(#clip0)">
<path d="M62.0554 86.1862L74.8354 65.4178C75.4616 64.4002 76.5701 63.7791 77.7653 63.7774H89.6354L88.5648 68.0607C88.181 69.5959 86.8015 70.6724 85.2191 70.6724H79.2929L67.937 91.9659C66.4388 94.7746 63.5149 96.5287 60.3316 96.5287C55.572 96.5287 51.7129 92.6696 51.7129 87.9099V77.5674H62.0554V86.1862Z" fill="#FDC9A6"/>
<path d="M3.44727 77.5909H13.7898V98.276H3.44727V77.5909Z" fill="#FDC9A6"/>
<path d="M63.7797 77.591H53.5954C55.6827 80.7229 55.6827 84.8025 53.5954 87.9335L51.8716 90.5191V98.276H13.7168V91.381L11.7431 88.0926C9.79123 84.8378 9.88886 80.7498 11.993 77.591H1.72461V68.9723C1.72461 63.2607 6.35551 58.6298 12.0671 58.6298H53.4371C59.1488 58.6298 63.7797 63.2607 63.7797 68.9723V77.591Z" fill="#3057B5"/>
<path d="M29.3038 98.2759C28.3519 98.2759 27.5801 97.5041 27.5801 96.5522V79.3147C27.5801 78.8576 27.7619 78.4191 28.0851 78.0959L31.0276 75.1534V67.2484C31.0276 66.2965 31.7994 65.5247 32.7513 65.5247C33.7033 65.5247 34.4751 66.2965 34.4751 67.2484V75.8672C34.4751 76.3242 34.2933 76.7627 33.9701 77.0859L31.0276 80.0284V96.5522C31.0276 97.5041 30.2558 98.2759 29.3038 98.2759Z" fill="#6CBAE5"/>
<path d="M37.9232 58.6298L32.752 68.9723L41.3707 65.5248L37.9232 58.6298Z" fill="#4979EC"/>
<path d="M27.5803 58.6298L32.7516 68.9723L24.1328 65.5248L27.5803 58.6298Z" fill="#4979EC"/>
<path d="M46.5406 77.5909H39.6456C38.6937 77.5909 37.9219 76.8191 37.9219 75.8672C37.9219 74.9152 38.6937 74.1434 39.6456 74.1434H46.5406C47.4926 74.1434 48.2644 74.9152 48.2644 75.8672C48.2644 76.8191 47.4926 77.5909 46.5406 77.5909Z" fill="#6CBAE5"/>
<path d="M85.3253 18.9834H74.9828C67.8429 18.9834 62.0547 24.7716 62.0547 31.9115C62.0547 39.0515 67.8429 44.8397 74.9828 44.8397H76.7066V53.4584L85.3253 44.8397C92.4653 44.8397 98.2535 39.0515 98.2535 31.9115C98.2535 24.7716 92.4653 18.9834 85.3253 18.9834Z" fill="#C0F5F9"/>
<path d="M70.6738 31.0496H74.1213V34.4971H70.6738V31.0496Z" fill="#5D9AA4"/>
<path d="M77.5684 31.0496H81.0159V34.4971H77.5684V31.0496Z" fill="#5D9AA4"/>
<path d="M84.4629 31.0496H87.9104V34.4971H84.4629V31.0496Z" fill="#5D9AA4"/>
<path d="M51.7127 27.6022C50.7607 27.6022 49.9889 26.8304 49.9889 25.8785V20.7072C49.9889 11.1879 42.2716 3.46972 32.7514 3.46972C23.2312 3.46972 15.5139 11.1879 15.5139 20.7072V25.8785C15.5139 26.8304 14.7421 27.6022 13.7902 27.6022C12.8382 27.6022 12.0664 26.8304 12.0664 25.8785V20.7072C12.0664 9.28317 21.3274 0.0222168 32.7514 0.0222168C44.1755 0.0222168 53.4364 9.28317 53.4364 20.7072V25.8785C53.4364 26.8304 52.6646 27.6022 51.7127 27.6022Z" fill="#3B869E"/>
<path d="M37.9226 58.6297L32.7513 68.9722L27.5801 58.6297V48.2872H37.9226V58.6297Z" fill="#FDC9A6"/>
<path d="M44.8184 37.9447H51.7134C54.5692 37.9447 56.8846 35.6301 56.8846 32.7735V29.326C56.8846 26.4702 54.5692 24.1547 51.7134 24.1547H44.8184V37.9447Z" fill="#5D9AA4"/>
<path d="M18.9623 55.1822C18.5052 55.1822 18.0667 55.0004 17.7435 54.6772L14.296 51.2297C13.9728 50.9065 13.791 50.468 13.791 50.011V36.2209C13.791 35.269 14.5628 34.4972 15.5148 34.4972C16.4667 34.4972 17.2385 35.269 17.2385 36.2209V49.2972L20.181 52.2397C20.6734 52.7329 20.8215 53.4745 20.5547 54.1183C20.2879 54.7622 19.6592 55.1822 18.9623 55.1822Z" fill="#3B869E"/>
<path d="M20.6854 37.9447H13.7904C10.9346 37.9447 8.61914 35.6301 8.61914 32.7735V29.326C8.61914 26.4702 10.9346 24.1547 13.7904 24.1547H20.6854V37.9447Z" fill="#5D9AA4"/>
<path d="M27.5801 52.4467C30.8954 53.7959 34.6072 53.7959 37.9226 52.4467V48.2872H27.5801V52.4467Z" fill="#F6BB92"/>
<path d="M32.7509 51.7347C25.1346 51.7347 18.9609 45.561 18.9609 37.9447V24.1547L32.7509 20.7072H46.541V37.9447C46.541 45.561 40.3673 51.7347 32.7509 51.7347Z" fill="#FDC9A6"/>
<path d="M46.541 27.6021L37.9222 20.7071L18.9609 27.6021V22.4309C18.9609 14.8154 25.1346 8.64087 32.7509 8.64087C40.3673 8.64087 46.541 14.8154 46.541 22.4309V27.6021Z" fill="#A45E14"/>
<path d="M32.7508 39.6684C32.2938 39.6684 31.8553 39.4866 31.532 39.1634L29.8083 37.4397C29.2839 36.9153 29.1526 36.114 29.4843 35.4508L31.208 32.0033C31.6339 31.1515 32.6692 30.8056 33.5209 31.2306C34.3735 31.6565 34.7195 32.6918 34.2936 33.5444L33.1245 35.8767L33.9695 36.7209C34.4661 37.2132 34.6159 37.9573 34.3483 38.6037C34.0815 39.2501 33.4502 39.6709 32.7508 39.6684Z" fill="#A45E14"/>
<path d="M39.6456 34.4971C38.6937 34.4971 37.9219 33.7253 37.9219 32.7734V31.0496C37.9219 30.0977 38.6937 29.3259 39.6456 29.3259C40.5976 29.3259 41.3694 30.0977 41.3694 31.0496V32.7734C41.3694 33.7253 40.5976 34.4971 39.6456 34.4971Z" fill="#A45E14"/>
<path d="M25.8566 34.4971C24.9046 34.4971 24.1328 33.7253 24.1328 32.7734V31.0496C24.1328 30.0977 24.9046 29.3259 25.8566 29.3259C26.8085 29.3259 27.5803 30.0977 27.5803 31.0496V32.7734C27.5803 33.7253 26.8085 34.4971 25.8566 34.4971Z" fill="#A45E14"/>
<path d="M32.7507 45.6485C31.287 45.6493 29.8435 45.311 28.533 44.6587C27.6804 44.2336 27.3345 43.1975 27.7604 42.3458C28.1863 41.494 29.2215 41.1481 30.0733 41.5731C31.76 42.4131 33.7413 42.4131 35.428 41.5731C36.2798 41.1481 37.3151 41.494 37.741 42.3458C38.1668 43.1975 37.8209 44.2336 36.9683 44.6587C35.6578 45.311 34.2143 45.6493 32.7507 45.6485Z" fill="#A45E14"/>
<path d="M31.532 39.1634C32.2088 39.8166 33.2836 39.8073 33.9485 39.1424C34.6134 38.4775 34.6227 37.4026 33.9695 36.7259L33.1245 35.8817L34.2936 33.5444C34.7195 32.6918 34.3735 31.6565 33.5209 31.2306C32.6692 30.8056 31.6339 31.1515 31.208 32.0033L29.4843 35.4508C29.1526 36.114 29.2839 36.9153 29.8083 37.4397L31.532 39.1634Z" fill="#333333"/>
<path d="M39.6456 34.4972C40.5976 34.4972 41.3694 33.7254 41.3694 32.7735V31.0497C41.3694 30.0978 40.5976 29.326 39.6456 29.326C38.6937 29.326 37.9219 30.0978 37.9219 31.0497V32.7735C37.9219 33.7254 38.6937 34.4972 39.6456 34.4972Z" fill="#333333"/>
<path d="M25.8566 29.326C24.9046 29.326 24.1328 30.0978 24.1328 31.0497V32.7735C24.1328 33.7254 24.9046 34.4972 25.8566 34.4972C26.8085 34.4972 27.5803 33.7254 27.5803 32.7735V31.0497C27.5803 30.0978 26.8085 29.326 25.8566 29.326Z" fill="#333333"/>
<path d="M36.9683 44.668C37.8209 44.2421 38.1669 43.206 37.741 42.3542C37.3151 41.5025 36.2798 41.1565 35.4281 41.5824C33.7413 42.4216 31.76 42.4216 30.0733 41.5824C29.2215 41.1565 28.1863 41.5025 27.7604 42.3542C27.3345 43.206 27.6804 44.2421 28.533 44.668C31.1894 45.9878 34.312 45.9878 36.9683 44.668Z" fill="#333333"/>
<path d="M12.0663 56.906C5.40524 56.9136 0.00757507 62.3121 0 68.9723V77.591C0 78.543 0.771816 79.3148 1.72375 79.3148V98.276C1.72375 99.228 2.49557 99.9998 3.4475 99.9998H51.8708C52.8227 99.9998 53.5945 99.228 53.5945 98.276V95.7476C55.9731 97.7946 59.1529 98.6506 62.2377 98.0732C65.3224 97.495 67.9771 95.5465 69.4534 92.7774L80.327 72.3962H85.2188C87.5923 72.3962 89.6611 70.7819 90.2369 68.4799L91.3075 64.1958C91.4362 63.6807 91.3209 63.1352 90.9944 62.7169C90.6669 62.2978 90.1662 62.0537 89.6351 62.0537H77.7708C75.973 62.0478 74.3031 62.9812 73.3663 64.5148L65.5025 77.2948V68.9723C65.495 62.3121 60.0973 56.9136 53.4363 56.906H39.6463V51.8214C44.3622 49.4765 47.569 44.902 48.1632 39.6685H51.7125C55.5203 39.6685 58.6075 36.5821 58.6075 32.7735V29.326C58.5958 26.1916 56.4714 23.4595 53.4363 22.6759V20.7072C53.4363 9.28317 44.1753 0.0222168 32.7513 0.0222168C21.3272 0.0222168 12.0663 9.28317 12.0663 20.7072V22.6759C9.03118 23.4595 6.90679 26.1916 6.895 29.326V32.7735C6.895 36.5821 9.98227 39.6685 13.79 39.6685V50.011C13.79 50.468 13.9718 50.9065 14.295 51.2297L17.7425 54.6772C18.4192 55.3304 19.494 55.3211 20.159 54.6562C20.8239 53.9913 20.8331 52.9165 20.18 52.2398L17.2375 49.2973V39.6685H17.3394C17.9336 44.902 21.1404 49.4765 25.8563 51.8214V56.906H12.0663ZM27.58 62.4846L29.1834 65.6889L26.5128 64.62L27.58 62.4846ZM5.17125 79.3148H9.23907C8.15078 82.5308 8.52533 86.0625 10.2634 88.9781L11.9871 91.8591V96.5523H5.17125V79.3148ZM15.4397 96.5523V91.381C15.4397 91.0688 15.3547 90.7616 15.1931 90.4939L13.2194 87.2046C11.6185 84.5197 11.6984 81.1538 13.4264 78.548C13.7791 78.0194 13.8119 77.3385 13.5123 76.778C13.2126 76.2174 12.6277 75.8673 11.9922 75.8673H3.4475V68.9723C3.45339 64.2151 7.30827 60.3594 12.0663 60.3535H24.7907L22.5897 64.7546C22.3743 65.1856 22.349 65.688 22.5207 66.1383C22.6924 66.5895 23.0451 66.948 23.4928 67.1265L31.0275 70.1397V75.1535L28.085 78.096C27.7618 78.4192 27.58 78.8577 27.58 79.3148V96.5523H15.4397ZM76.3038 66.3218C76.6169 65.8118 77.1724 65.5012 77.7708 65.5012H87.4231L86.887 67.6433C86.6951 68.4109 86.0049 68.9495 85.2137 68.9487H79.2925C78.6554 68.9479 78.0696 69.2997 77.7708 69.8619L66.4158 91.1538C65.1743 93.4852 62.7099 94.9034 60.0704 94.8033C57.4309 94.704 55.0792 93.1056 54.017 90.6866C53.9876 90.6395 53.9556 90.5941 53.9202 90.5503L55.0287 88.8905C56.9158 86.0701 57.3972 82.5375 56.3359 79.3148H60.3313V86.1862C60.3313 86.9572 60.843 87.6356 61.5854 87.8452C62.3277 88.0556 63.1198 87.7467 63.5238 87.0893L76.3038 66.3218ZM63.7788 80.0958V79.3148C63.9665 79.3089 64.1516 79.271 64.3267 79.2045L63.7788 80.0958ZM62.055 68.9723V75.8437C62.0138 75.8437 61.9793 75.8639 61.938 75.8673H53.5945C52.9591 75.8673 52.3749 76.2174 52.0745 76.778C51.7748 77.3385 51.8076 78.0194 52.1603 78.548C53.8655 81.0991 53.8655 84.4263 52.1603 86.9774L50.4366 89.563C50.248 89.8458 50.147 90.1791 50.147 90.5192V96.5523H31.0275V80.0285L33.97 77.086C34.2932 76.7628 34.475 76.3243 34.475 75.8673V70.1397L42.0097 67.1265C42.4575 66.948 42.8101 66.5895 42.9818 66.1383C43.1535 65.688 43.1283 65.1856 42.9128 64.7546L40.7118 60.3535H53.4363C58.1943 60.3594 62.0491 64.2151 62.055 68.9723ZM37.9225 62.4846L38.9898 64.62L36.3191 65.6889L37.9225 62.4846ZM20.685 22.431C20.685 15.7674 26.0869 10.3647 32.7513 10.3647C39.4157 10.3647 44.8175 15.7674 44.8175 22.431V24.015L38.9999 19.3614C38.5302 18.9852 37.8981 18.8816 37.3334 19.087L20.685 25.1412V22.431ZM55.16 29.326V32.7735C55.16 34.6774 53.6164 36.221 51.7125 36.221H48.265V25.8785H51.7125C53.6164 25.8785 55.16 27.4221 55.16 29.326ZM32.7513 3.46972C42.2673 3.48066 49.9787 11.1921 49.9888 20.7072V22.431H48.265C48.265 13.8636 41.3195 6.91722 32.7513 6.91722C24.183 6.91722 17.2375 13.8636 17.2375 22.431H15.5138V20.7072C15.5239 11.1921 23.2353 3.48066 32.7513 3.46972ZM10.3425 32.7735V29.326C10.3425 27.4221 11.8861 25.8785 13.79 25.8785H17.2375V36.221H13.79C11.8861 36.221 10.3425 34.6774 10.3425 32.7735ZM20.685 37.9447V28.8092L37.6002 22.6574L44.8175 28.4313V37.9447C44.8175 44.6091 39.4157 50.011 32.7513 50.011C26.0869 50.011 20.685 44.6091 20.685 37.9447ZM32.7513 53.4585C33.9119 53.4551 35.0684 53.3213 36.1988 53.0587V58.23L32.7513 65.125L29.3038 58.23V53.0587C30.4341 53.3213 31.5906 53.4551 32.7513 53.4585Z" fill="#333333"/>
<path d="M37.9219 75.8672C37.9219 76.8191 38.6937 77.5909 39.6456 77.5909H46.5406C47.4926 77.5909 48.2644 76.8191 48.2644 75.8672C48.2644 74.9152 47.4926 74.1434 46.5406 74.1434H39.6456C38.6937 74.1434 37.9219 74.9152 37.9219 75.8672Z" fill="#333333"/>
<path d="M76.0458 55.0517C76.6897 55.3186 77.4312 55.1704 77.9245 54.6772L86.0567 46.5466C94.0055 46.1611 100.194 39.5009 99.994 31.5454C99.7954 23.5899 93.2825 17.2479 85.3245 17.2597H74.982C66.8901 17.2597 60.3301 23.8197 60.3301 31.9115C60.3301 40.0043 66.8901 46.5634 74.982 46.5634V53.4584C74.982 54.1562 75.402 54.7841 76.0458 55.0517ZM63.7776 31.9115C63.7852 25.7269 68.7973 20.7147 74.982 20.7072H85.3245C91.5125 20.7072 96.5289 25.7235 96.5289 31.9115C96.5289 38.0995 91.5125 43.1159 85.3245 43.1159C84.8674 43.1159 84.4289 43.2977 84.1057 43.6209L78.4295 49.2972V44.8397C78.4295 43.8878 77.6577 43.1159 76.7057 43.1159H74.982C68.7973 43.1084 63.7852 38.097 63.7776 31.9115Z" fill="#333333"/>
<path d="M70.6738 31.0496H74.1213V34.4971H70.6738V31.0496Z" fill="#333333"/>
<path d="M77.5684 31.0496H81.0159V34.4971H77.5684V31.0496Z" fill="#333333"/>
<path d="M84.4629 31.0496H87.9104V34.4971H84.4629V31.0496Z" fill="#333333"/>
</g>
<defs>
<clipPath id="clip0">
<rect width="100" height="100" fill="white"/>
</clipPath>
</defs>
</svg>
