<svg width="24" height="24" viewBox="0 0 24 24" fill="none" xmlns="http://www.w3.org/2000/svg">
<path d="M19.1388 6.86819L19.2801 7.0044C20.4378 8.1198 21.4314 9.55655 22.2635 11.3095C22.3652 11.525 22.4181 11.7606 22.4181 11.9988C22.4181 12.2371 22.3654 12.4723 22.2636 12.6878C21.144 15.0571 19.7294 16.8474 18.0137 18.045C16.2963 19.2438 14.289 19.8406 12 19.8406C10.3492 19.8406 8.84361 19.529 7.48641 18.9023L7.22606 18.782L8.81119 17.1969L8.93106 17.2408C9.86292 17.5815 10.8852 17.7531 12 17.7531C13.8555 17.7531 15.452 17.2837 16.8231 16.3261C18.1762 15.381 19.3222 13.9518 20.2783 12C19.5637 10.5429 18.7436 9.37701 17.8107 8.48552L17.6628 8.34417L19.1388 6.86819Z" fill="#333333"/>
<path fill-rule="evenodd" clip-rule="evenodd" d="M19.7352 2.73865L20.7342 3.7388C20.7701 3.77476 20.7988 3.8176 20.8183 3.86457C20.8378 3.91161 20.8478 3.96203 20.8478 4.01296C20.8478 4.06389 20.8378 4.11431 20.8183 4.16135C20.7988 4.20836 20.7702 4.25114 20.7342 4.28712L4.04319 20.9774C3.97053 21.05 3.87201 21.0908 3.76928 21.0908C3.66655 21.0908 3.56798 21.05 3.49532 20.9774L2.49472 19.9768C2.42211 19.9041 2.38132 19.8056 2.38132 19.7028C2.38132 19.6001 2.42217 19.5015 2.49479 19.4289L4.82747 17.0969C3.62379 15.9682 2.59443 14.4975 1.73646 12.6905C1.63473 12.475 1.58179 12.2394 1.58179 12.0012C1.58179 11.7629 1.63455 11.5277 1.73628 11.3122C2.85587 8.94288 4.27054 7.15258 5.98625 5.95494C7.70361 4.75614 9.71091 4.15937 12 4.15937C13.7378 4.15937 15.3143 4.50461 16.7257 5.19874L19.1869 2.73865C19.2229 2.70267 19.2657 2.67402 19.3127 2.65454C19.3597 2.63504 19.4101 2.625 19.4611 2.625C19.512 2.625 19.5624 2.63504 19.6094 2.65454C19.6565 2.67404 19.6992 2.70262 19.7352 2.73865ZM3.72163 12C4.67888 10.0482 5.82541 8.61896 7.17853 7.67392C8.54964 6.71631 10.1456 6.24687 12 6.24687C13.1428 6.24687 14.1863 6.42538 15.1391 6.78525L13.8088 8.11558C13.0229 7.73041 12.1373 7.59225 11.2693 7.72134C10.3521 7.85774 9.50297 8.28534 8.84726 8.94105C8.19155 9.59676 7.76395 10.4459 7.62754 11.3631C7.49845 12.2311 7.63662 13.1166 8.02179 13.9026L6.30385 15.6205C5.32349 14.7171 4.46537 13.5163 3.72163 12ZM12.3151 9.60927C12.0529 9.56475 11.7844 9.5635 11.5203 9.60631C11.1434 9.66742 10.7862 9.81657 10.4778 10.0416C10.1693 10.2667 9.91834 10.5614 9.74518 10.9017C9.57202 11.242 9.48158 11.6184 9.4812 12.0002C9.48105 12.1374 9.49254 12.2741 9.51543 12.4089L12.3151 9.60927Z" fill="#333333"/>
<path d="M11.591 14.4063L11.6843 14.4149C11.7576 14.4216 11.8314 14.425 11.9063 14.425C12.2248 14.4252 12.5403 14.3626 12.8346 14.2408C13.1289 14.119 13.3962 13.9404 13.6214 13.7152C13.8466 13.49 14.0253 13.2226 14.1471 12.9283C14.2689 12.634 14.3315 12.3186 14.3313 12.0002C14.3313 11.9253 14.3278 11.8513 14.3211 11.7781L14.3126 11.6847L15.8348 10.1625L15.945 10.4503C16.244 11.231 16.3104 12.0815 16.1363 12.8992C15.9622 13.7168 15.5549 14.4665 14.9638 15.0576C14.3727 15.6487 13.623 16.0559 12.8054 16.2301C11.9878 16.4042 11.1372 16.3377 10.3566 16.0388L10.0687 15.9285L11.591 14.4063Z" fill="#333333"/>
</svg>
