<svg width="100" height="100" viewBox="0 0 100 100" fill="none" xmlns="http://www.w3.org/2000/svg">
<path d="M46.668 40H84.168C92.913 40 98.3346 48.755 98.3346 57.5V91.6667H31.668" fill="#3057B5"/>
<path d="M1.66602 91.6666H98.3327V98.3333H1.66602V91.6666Z" fill="#B9B9B9"/>
<path d="M1.66602 91.6666H63.3327V98.3333H1.66602V91.6666Z" fill="#F0F0F0"/>
<path d="M58.334 91.6666H63.334V98.3333H58.334V91.6666Z" fill="#DBDBDB"/>
<path d="M31.668 91.6667H63.3346V56.6666C63.3346 44.52 56.2463 40 47.5013 40C38.748 39.695 31.668 47.62 31.668 56.6666V91.6667Z" fill="#0F3695"/>
<path d="M8.33398 56.6667H63.334V91.6667H8.33398V56.6667Z" fill="#EA9D2D"/>
<path d="M70 1.66669H76.6667V40H70V1.66669Z" fill="#F0F0F0"/>
<path d="M70 1.66669H73.3333V40H70V1.66669Z" fill="#DBDBDB"/>
<path d="M98.3327 18.3334H76.666V1.66669H98.3327L93.3327 10L98.3327 18.3334Z" fill="#0F3695"/>
<path d="M93.3327 1.66669H76.666V18.3334H93.3327L88.3327 10L93.3327 1.66669Z" fill="#3057B5"/>
<path d="M8.33398 56.6667L39.144 73.3333L63.3323 59.5217L63.334 56.6667H8.33398Z" fill="#FBB540"/>
<path d="M58.334 56.6667H63.334V91.6667H58.334V56.6667Z" fill="#D68F29"/>
<path d="M63.3323 59.5217L63.334 56.6667H58.334V62.3767L63.3323 59.5217Z" fill="#EA9D2D"/>
<path d="M99.7833 0.845C99.4875 0.322708 98.9335 0 98.3333 0H70C69.0796 0 68.3333 0.74625 68.3333 1.66667V38.3333H46.6667C46.6367 38.3333 46.6117 38.3483 46.5817 38.35C42.5133 38.4856 38.6454 40.149 35.7483 43.0083C32.4802 46.1985 30.469 50.4577 30.0817 55.0083H8.33333C8.12687 55.0112 7.92292 55.0525 7.73167 55.13C7.67417 55.1583 7.61854 55.19 7.565 55.225C7.445 55.2844 7.33292 55.359 7.23167 55.4467C7.1775 55.499 7.12687 55.5546 7.08 55.6133C6.99917 55.7085 6.92917 55.8125 6.87167 55.9233C6.83542 55.9921 6.80437 56.0633 6.77833 56.1367C6.76167 56.1833 6.73167 56.2217 6.71833 56.27C6.70458 56.3581 6.69729 56.4473 6.69667 56.5367C6.69667 56.5867 6.66833 56.6283 6.66833 56.68V90H1.66667C0.74625 90 0 90.7462 0 91.6667V98.3333C0 99.2537 0.74625 100 1.66667 100H98.3333C99.2537 100 100 99.2537 100 98.3333V57.5C100 48.0783 94.0767 38.3333 84.1667 38.3333H78.3333V20H98.3333C99.2537 19.9998 99.9998 19.2535 99.9996 18.3329C99.9996 18.0306 99.9173 17.734 99.7617 17.475L95.2767 10L99.7617 2.525C100.071 2.00979 100.08 1.36792 99.7833 0.845ZM38.0667 45.4067C40.5681 42.9235 43.9767 41.5721 47.5 41.6667C53.6667 41.6667 60.9283 44.05 61.6 55H33.4333C33.8106 51.3594 35.4496 47.9654 38.0667 45.4067ZM61.6667 58.3333V58.555L39.1233 71.4267L14.9167 58.3333H61.6667ZM10 59.4633L38.3517 74.7967C38.5944 74.9294 38.8667 74.9987 39.1433 74.9983C39.4354 74.9998 39.7229 74.9246 39.9767 74.78L61.6667 62.3933V90H10V59.4633ZM96.6667 96.6667H3.33333V93.3333H96.6667V96.6667ZM96.6667 57.5V90H65V56.6667C65 49.8417 62.7967 44.7367 58.7583 41.6667H84.1667C91.99 41.6667 96.6667 49.7167 96.6667 57.5ZM71.6667 38.3333V3.33333H75V38.3333H71.6667ZM91.905 9.14167C91.5877 9.66979 91.5877 10.3302 91.905 10.8583L95.3883 16.6667H78.3333V3.33333H95.3883L91.905 9.14167Z" fill="#333333"/>
</svg>
