<svg width="24" height="24" viewBox="0 0 24 24" fill="none" xmlns="http://www.w3.org/2000/svg">
<path d="M17.8292 22.6666C17.6216 22.666 17.4146 22.6428 17.2118 22.5972C13.3508 21.7804 9.79379 19.8653 6.95016 17.0724C4.16721 14.2733 2.23709 10.7094 1.39332 6.81199C1.29383 6.32626 1.31825 5.82251 1.46423 5.34922C1.61021 4.87593 1.87284 4.44902 2.22684 4.10957L4.69655 1.67865C4.8227 1.55665 4.97258 1.46323 5.13642 1.40448C5.30026 1.34573 5.47437 1.32297 5.64739 1.33769C5.82679 1.35683 5.99992 1.41593 6.15459 1.51083C6.30926 1.60574 6.44172 1.73414 6.54266 1.88701L9.6298 6.55311C9.74557 6.73417 9.80145 6.94844 9.78922 7.1644C9.777 7.38036 9.69731 7.58661 9.56188 7.75279L8.01214 9.64701C8.62935 11.044 9.50344 12.3065 10.5868 13.366C11.6632 14.4639 12.9354 15.3405 14.3346 15.9485L16.2548 14.3889C16.4161 14.2585 16.6123 14.1815 16.8174 14.1679C17.0226 14.1544 17.2269 14.205 17.4032 14.3131L22.0648 17.3944C22.2248 17.4921 22.361 17.6255 22.4634 17.7847C22.5658 17.9439 22.6316 18.1247 22.656 18.3136C22.6803 18.5025 22.6626 18.6946 22.604 18.8754C22.5455 19.0563 22.4477 19.2213 22.3179 19.3581L19.91 21.7953C19.6364 22.0736 19.3118 22.2939 18.9547 22.4435C18.5976 22.593 18.2151 22.6688 17.8292 22.6666ZM5.5486 2.58788L3.07889 5.01879C2.87974 5.20856 2.73232 5.44808 2.65113 5.71377C2.56994 5.97947 2.55777 6.26221 2.61582 6.53417C3.4004 10.1914 5.2039 13.5379 7.80839 16.1694C10.4844 18.7971 13.8318 20.5984 17.4649 21.3659C17.74 21.4247 18.0249 21.4128 18.2943 21.3313C18.5637 21.2497 18.8091 21.1011 19.0085 20.8987L21.4165 18.4615L16.9154 15.4875L14.8532 17.1671C14.7743 17.231 14.6813 17.2742 14.5822 17.2929C14.4832 17.3116 14.3813 17.3052 14.2852 17.2744C12.5729 16.6292 11.0211 15.6051 9.74093 14.2752C8.41677 13.0107 7.38892 11.4566 6.73406 9.72909C6.70636 9.62451 6.70544 9.5144 6.73139 9.40934C6.75734 9.30429 6.80929 9.20784 6.88225 9.12926L8.5493 7.08981L5.5486 2.58788Z" fill="white"/>
</svg>
