<svg width="24" height="24" viewBox="0 0 24 24" fill="none" xmlns="http://www.w3.org/2000/svg">
<path d="M17.8293 22.6665C17.6217 22.6659 17.4147 22.6427 17.2119 22.5971C13.3509 21.7803 9.79385 19.8652 6.95022 17.0723C4.16727 14.2732 2.23715 10.7093 1.39338 6.8119C1.29389 6.32616 1.31831 5.82242 1.46429 5.34913C1.61027 4.87584 1.8729 4.44893 2.22691 4.10948L4.69661 1.67856C4.82276 1.55656 4.97264 1.46314 5.13648 1.40439C5.30032 1.34564 5.47443 1.32288 5.64745 1.3376C5.82685 1.35674 5.99998 1.41584 6.15465 1.51074C6.30932 1.60565 6.44178 1.73405 6.54272 1.88692L9.62986 6.55302C9.74563 6.73407 9.80151 6.94835 9.78928 7.16431C9.77706 7.38027 9.69737 7.58652 9.56194 7.7527L8.0122 9.64692C8.62941 11.0439 9.5035 12.3065 10.5869 13.3659C11.6632 14.4638 12.9355 15.3404 14.3347 15.9484L16.2549 14.3888C16.4161 14.2584 16.6124 14.1814 16.8175 14.1678C17.0226 14.1543 17.227 14.2049 17.4033 14.313L22.0648 17.3943C22.2248 17.492 22.3611 17.6254 22.4635 17.7846C22.5659 17.9438 22.6317 18.1246 22.6561 18.3135C22.6804 18.5024 22.6626 18.6945 22.6041 18.8754C22.5455 19.0562 22.4477 19.2212 22.318 19.358L19.91 21.7952C19.6365 22.0735 19.3118 22.2938 18.9547 22.4434C18.5977 22.5929 18.2152 22.6687 17.8293 22.6665ZM5.54866 2.58778L3.07896 5.0187C2.87981 5.20847 2.73239 5.44798 2.65119 5.71368C2.57 5.97938 2.55783 6.26212 2.61589 6.53408C3.40046 10.1913 5.20397 13.5378 7.80845 16.1694C10.4845 18.797 13.8318 20.5983 17.465 21.3658C17.74 21.4246 18.025 21.4127 18.2944 21.3312C18.5638 21.2496 18.8092 21.101 19.0086 20.8986L21.4165 18.4614L16.9155 15.4874L14.8533 17.167C14.7743 17.2309 14.6813 17.2741 14.5823 17.2928C14.4833 17.3115 14.3813 17.3051 14.2853 17.2743C12.5729 16.6291 11.0212 15.605 9.74099 14.2751C8.41683 13.0106 7.38898 11.4565 6.73412 9.729C6.70642 9.62442 6.7055 9.5143 6.73145 9.40925C6.7574 9.3042 6.80935 9.20774 6.88231 9.12916L8.54936 7.08972L5.54866 2.58778Z" fill="#333333"/>
</svg>
