<svg width="19" height="20" viewBox="0 0 19 20" fill="none" xmlns="http://www.w3.org/2000/svg">
<g filter="url(#filter0_d)">
<path d="M5.03477 13.4302C4.74213 13.054 4.37632 12.291 3.73878 11.3399C3.37298 10.8173 2.47415 9.82444 2.20241 9.31232C2.00651 9.00111 1.94967 8.62216 2.04563 8.26717C2.20968 7.59222 2.84994 7.14448 3.5402 7.22201C4.07407 7.32926 4.56468 7.59092 4.95116 7.97452C5.221 8.22868 5.46921 8.50485 5.69322 8.80019C5.86044 9.00922 5.90225 9.09284 6.09037 9.33322C6.2785 9.57361 6.40392 9.81399 6.30986 9.45864C6.2367 8.93606 6.11128 8.05814 5.9336 7.27427C5.79773 6.67853 5.76638 6.58447 5.64096 6.13505C5.51554 5.68564 5.44238 5.30938 5.30651 4.79726C5.18231 4.29409 5.08463 3.78475 5.01387 3.27134C4.88213 2.61467 4.97797 1.93272 5.28561 1.3378C5.65078 0.994333 6.18646 0.90368 6.64431 1.10787C7.1048 1.4479 7.44813 1.92272 7.62675 2.46657C7.90065 3.13587 8.08344 3.83892 8.17023 4.55687C8.33745 5.60203 8.66145 7.12795 8.6719 7.4415C8.6719 7.05479 8.59874 6.23957 8.6719 5.87377C8.74439 5.49242 9.00944 5.17593 9.37215 5.03764C9.68341 4.94214 10.0127 4.92067 10.3337 4.97493C10.6577 5.04268 10.9448 5.22906 11.1385 5.49751C11.3806 6.10725 11.515 6.75441 11.5356 7.41014C11.5636 6.83592 11.6619 6.2673 11.8283 5.71699C12.0029 5.47091 12.258 5.29349 12.5494 5.21532C12.8949 5.15215 13.2491 5.15215 13.5946 5.21532C13.8779 5.31004 14.1258 5.48864 14.3053 5.72744C14.5266 6.28174 14.6606 6.86702 14.7024 7.4624C14.7024 7.60872 14.7756 7.05479 15.0055 6.68899C15.125 6.33426 15.4247 6.07022 15.7916 5.99634C16.1586 5.92245 16.5371 6.04994 16.7845 6.33079C17.032 6.61163 17.1108 7.00316 16.9913 7.35788C16.9913 8.03723 16.9913 8.00588 16.9913 8.46575C16.9913 8.92561 16.9913 9.33322 16.9913 9.71993C16.9532 10.3315 16.8694 10.9394 16.7405 11.5385C16.5586 12.0685 16.3054 12.5713 15.988 13.0331C15.4805 13.5974 15.0612 14.2352 14.7442 14.9248C14.6656 15.2674 14.6305 15.6186 14.6397 15.9699C14.6387 16.2946 14.6809 16.618 14.7651 16.9315C14.3378 16.9767 13.9069 16.9767 13.4796 16.9315C13.072 16.8688 12.5703 16.0536 12.4345 15.8027C12.3672 15.668 12.2296 15.5829 12.0791 15.5829C11.9286 15.5829 11.791 15.668 11.7237 15.8027C11.4938 16.1999 10.9817 16.921 10.6263 16.9628C9.92609 17.0464 8.48377 16.9628 7.34456 16.9628C7.34456 16.9628 7.53269 15.9177 7.10417 15.5414C6.67566 15.1652 6.2367 14.7262 5.9127 14.4336L5.03477 13.4302Z" fill="white"/>
<path fill-rule="evenodd" clip-rule="evenodd" d="M5.03477 13.4302C4.74213 13.054 4.37632 12.291 3.73878 11.3399C3.37298 10.8173 2.47415 9.82444 2.20241 9.31232C2.00651 9.0011 1.94967 8.62216 2.04563 8.26717C2.20968 7.59222 2.84994 7.14448 3.5402 7.22201C4.07407 7.32926 4.56468 7.59092 4.95116 7.97452C5.221 8.22868 5.46921 8.50485 5.69322 8.80019C5.86044 9.00922 5.90225 9.09284 6.09037 9.33322C6.2785 9.57361 6.40392 9.81399 6.30986 9.45864C6.2367 8.93606 6.11128 8.05814 5.9336 7.27427C5.79773 6.67853 5.76638 6.58447 5.64096 6.13505C5.51554 5.68564 5.44238 5.30938 5.30651 4.79726C5.18231 4.29409 5.08463 3.78475 5.01387 3.27134C4.88213 2.61467 4.97797 1.93272 5.28561 1.3378C5.65078 0.994333 6.18646 0.90368 6.64431 1.10787C7.1048 1.4479 7.44813 1.92272 7.62675 2.46657C7.90065 3.13587 8.08344 3.83892 8.17023 4.55687C8.33745 5.60203 8.66145 7.12795 8.6719 7.4415C8.6719 7.05479 8.59874 6.23957 8.6719 5.87377C8.74439 5.49242 9.00944 5.17593 9.37215 5.03764C9.68341 4.94214 10.0127 4.92067 10.3337 4.97493C10.6577 5.04268 10.9448 5.22906 11.1385 5.49751C11.3806 6.10725 11.515 6.75441 11.5356 7.41014C11.5636 6.83592 11.6619 6.2673 11.8283 5.71699C12.0029 5.47091 12.258 5.29349 12.5494 5.21532C12.8949 5.15215 13.2491 5.15215 13.5946 5.21532C13.8779 5.31004 14.1258 5.48864 14.3053 5.72744C14.5266 6.28174 14.6606 6.86702 14.7024 7.4624C14.7024 7.60872 14.7756 7.05479 15.0055 6.68899C15.125 6.33426 15.4247 6.07022 15.7916 5.99634C16.1586 5.92245 16.5371 6.04994 16.7845 6.33079C17.032 6.61163 17.1108 7.00316 16.9913 7.35788C16.9913 8.03723 16.9913 8.00588 16.9913 8.46575C16.9913 8.92561 16.9913 9.33322 16.9913 9.71993C16.9532 10.3315 16.8694 10.9394 16.7405 11.5385C16.5586 12.0685 16.3054 12.5713 15.988 13.0331C15.4805 13.5974 15.0612 14.2352 14.7442 14.9248C14.6656 15.2674 14.6305 15.6186 14.6397 15.9699C14.6387 16.2946 14.6809 16.618 14.7651 16.9315C14.3378 16.9767 13.9069 16.9767 13.4796 16.9315C13.072 16.8688 12.5703 16.0536 12.4345 15.8027C12.3672 15.668 12.2296 15.5829 12.0791 15.5829C11.9286 15.5829 11.791 15.668 11.7237 15.8027C11.4938 16.1999 10.9817 16.921 10.6263 16.9628C9.92609 17.0465 8.48377 16.9628 7.34456 16.9628C7.34456 16.9628 7.53269 15.9177 7.10417 15.5414C6.67566 15.1652 6.2367 14.7262 5.9127 14.4336L5.03477 13.4302Z" stroke="black" stroke-width="0.75" stroke-linecap="round" stroke-linejoin="round"/>
<path d="M13.8976 14.0007V10.3931C13.8976 10.1771 13.7222 10.0021 13.5057 10.0021C13.2892 10.0021 13.1138 10.1771 13.1138 10.3931V14.0007C13.1138 14.2167 13.2892 14.3917 13.5057 14.3917C13.7222 14.3917 13.8976 14.2167 13.8976 14.0007Z" fill="black"/>
<path d="M11.8282 13.9994L11.8073 10.3899C11.806 10.1745 11.6296 10.0008 11.4131 10.0021C11.1967 10.0033 11.0222 10.179 11.0234 10.3944L11.0443 14.0039C11.0456 14.2193 11.2221 14.393 11.4385 14.3917C11.655 14.3905 11.8294 14.2148 11.8282 13.9994Z" fill="black"/>
<path d="M8.93311 10.3982L8.95402 14.0002C8.95528 14.2177 9.13177 14.393 9.34823 14.3917C9.56468 14.3904 9.73913 14.2131 9.73787 13.9956L9.71696 10.3936C9.7157 10.1761 9.53921 10.0008 9.32275 10.0021C9.1063 10.0034 8.93185 10.1807 8.93311 10.3982Z" fill="black"/>
</g>
<defs>
<filter id="filter0_d" x="0.825" y="0.625" width="17.3962" height="18.55" filterUnits="userSpaceOnUse" color-interpolation-filters="sRGB">
<feFlood flood-opacity="0" result="BackgroundImageFix"/>
<feColorMatrix in="SourceAlpha" type="matrix" values="0 0 0 0 0 0 0 0 0 0 0 0 0 0 0 0 0 0 127 0"/>
<feOffset dy="1"/>
<feGaussianBlur stdDeviation="0.4"/>
<feColorMatrix type="matrix" values="0 0 0 0 0 0 0 0 0 0 0 0 0 0 0 0 0 0 0.5 0"/>
<feBlend mode="normal" in2="BackgroundImageFix" result="effect1_dropShadow"/>
<feBlend mode="normal" in="SourceGraphic" in2="effect1_dropShadow" result="shape"/>
</filter>
</defs>
</svg>
