<svg width="36" height="36" viewBox="0 0 36 36" fill="none" xmlns="http://www.w3.org/2000/svg">
<path fill-rule="evenodd" clip-rule="evenodd" d="M25 16C25 20.9706 20.9706 25 16 25C11.0294 25 7 20.9706 7 16C7 11.0294 11.0294 7 16 7C20.9706 7 25 11.0294 25 16ZM23.2622 24.2622C21.3248 25.9664 18.7831 27 16 27C9.92487 27 5 22.0751 5 16C5 9.92487 9.92487 5 16 5C22.0751 5 27 9.92487 27 16C27 18.5717 26.1175 20.9373 24.6388 22.8104L30.7071 28.8787C31.0976 29.2692 31.0976 29.9024 30.7071 30.2929C30.3166 30.6834 29.6834 30.6834 29.2929 30.2929L23.2622 24.2622Z" fill="#757575"/>
</svg>
