<svg width="24" height="24" viewBox="0 0 24 24" fill="none" xmlns="http://www.w3.org/2000/svg">
<path fill-rule="evenodd" clip-rule="evenodd" d="M16.6663 10.6667C16.6663 13.9804 13.98 16.6667 10.6663 16.6667C7.35263 16.6667 4.66634 13.9804 4.66634 10.6667C4.66634 7.353 7.35263 4.66671 10.6663 4.66671C13.98 4.66671 16.6663 7.353 16.6663 10.6667ZM15.5078 16.1748C14.2162 17.311 12.5217 18 10.6663 18C6.61625 18 3.33301 14.7168 3.33301 10.6667C3.33301 6.61662 6.61625 3.33337 10.6663 3.33337C14.7164 3.33337 17.9997 6.61662 17.9997 10.6667C17.9997 12.3812 17.4113 13.9582 16.4255 15.207L20.4711 19.2525C20.7314 19.5129 20.7314 19.935 20.4711 20.1953C20.2107 20.4557 19.7886 20.4557 19.5282 20.1953L15.5078 16.1748Z" fill="#A2A2A2"/>
</svg>
