<svg xmlns="http://www.w3.org/2000/svg" xmlns:xlink="http://www.w3.org/1999/xlink">
    <symbol id="best-sell" viewBox="0 0 32 32">
        <path fill="#e65f40" style="fill: var(--color1, #e65f40)" d="M6.538 20.087c-0.982-0.15-1.803-0.261-2.629-0.425-0.878-0.159-1.652-0.327-2.111-1.386-0.201-0.506-0.795-1.004-1.303-1.431-0.113-0.095-0.222-0.138-0.335-0.233-0.202-0.218-0.305-0.497-0.144-0.747 0.461-0.721-0.507-2.207 1.056-2.292 1.927-0.116 3.696-0.847 5.53-1.138 3.251-0.546 6.543-0.337 9.829-0.179 2.706 0.104 5.416 0.259 8.127 0.415 1.894 0.096 3.782 0.428 5.67 0.761 0.212 0.034 0.401 0.096 0.566 0.186 0.189 0.062 0.434 0.171 0.4 0.384-0.006 0.236-0.265 0.259-0.445 0.301-0.331 0.108-0.728 0.064-1.163 0.468 0.718 0.12 1.275 0.203 1.86 0.309 0.481 0.115 0.811 0.296 0.333 0.809-0.194 0.174-0.265 0.259-0.016 0.42 0.923 0.679 0.492 1.135-0.36 1.576 0.297 0.105 0.538 0.162 0.779 0.22-0.299 0.471-0.865 0.285-1.15 0.624 0.094 0.175 0.345 0.048 0.391 0.28-0.076 0.033-0.175 0.094-0.227 0.098-0.548 0.022-1.072 0.015-1.592 0.061-0.803 0.096-0.946 0.266-0.793 1.117 0.051 0.284-0.152 0.354-0.304 0.419-0.203 0.070-0.383 0.112-0.586 0.182-0.18 0.042-0.307 0.079-0.487 0.121 0.079 0.307 0.33 0.181 0.49 0.219 0.189 0.062 0.373 0.072 0.694 0.149-0.568 0.39-1.144 0.388-1.64 0.405-5.938 0.362-11.951 0.47-17.911 0.284-0.841-0.031-1.72 0.098-2.468-0.674-0.513-0.479-0.696-0.777-0.062-1.304zM27.003 14.579c-1.652-0.327-3.342-0.493-5.044-0.187 1.653 0.039 3.334 0.101 5.044 0.187z"/>
        <path fill="#fff" style="fill: var(--color2, #fff)" d="M5.736 15.299h1.908v0.54h-1.301v0.646c0.050-0.009 0.111-0.018 0.181-0.027 0.074-0.009 0.146-0.013 0.217-0.013 0.165 0 0.317 0.016 0.456 0.049s0.257 0.087 0.354 0.164c0.1 0.074 0.179 0.173 0.235 0.297 0.056 0.121 0.084 0.27 0.084 0.447 0 0.174-0.029 0.326-0.089 0.456-0.056 0.13-0.139 0.238-0.248 0.323-0.106 0.086-0.236 0.151-0.39 0.195-0.151 0.044-0.32 0.066-0.509 0.066-0.050 0-0.114-0.001-0.19-0.004-0.074-0.003-0.153-0.007-0.239-0.013-0.083-0.006-0.165-0.013-0.248-0.022s-0.156-0.021-0.221-0.035v-3.068zM6.679 17.942c0.077 0 0.148-0.009 0.213-0.027 0.068-0.021 0.127-0.050 0.177-0.089 0.050-0.041 0.090-0.093 0.12-0.155s0.044-0.137 0.044-0.226c0-0.106-0.016-0.192-0.049-0.257s-0.077-0.115-0.133-0.151c-0.056-0.038-0.121-0.063-0.195-0.075-0.071-0.012-0.148-0.018-0.23-0.018-0.041 0-0.093 0.004-0.155 0.013-0.062 0.006-0.105 0.012-0.128 0.018v0.943c0.032 0.009 0.081 0.015 0.146 0.018 0.068 0.003 0.131 0.004 0.19 0.004z"/>
        <path fill="#fff" style="fill: var(--color2, #fff)" d="M10.018 18.207c-0.089 0.071-0.21 0.131-0.363 0.181-0.15 0.047-0.311 0.071-0.482 0.071-0.357 0-0.618-0.103-0.784-0.31-0.165-0.209-0.248-0.496-0.248-0.859 0-0.39 0.093-0.682 0.279-0.876s0.447-0.292 0.784-0.292c0.112 0 0.221 0.015 0.328 0.044s0.201 0.078 0.283 0.146c0.083 0.068 0.149 0.159 0.199 0.274s0.075 0.258 0.075 0.429c0 0.062-0.004 0.128-0.013 0.199-0.006 0.071-0.016 0.145-0.031 0.221h-1.328c0.009 0.186 0.056 0.326 0.142 0.421 0.089 0.094 0.23 0.142 0.425 0.142 0.121 0 0.229-0.018 0.323-0.053 0.097-0.038 0.171-0.077 0.221-0.115l0.19 0.376zM9.195 16.583c-0.15 0-0.263 0.046-0.336 0.137-0.071 0.089-0.114 0.208-0.128 0.359h0.823c0.012-0.159-0.013-0.282-0.075-0.367-0.059-0.086-0.153-0.128-0.283-0.128z"/>
        <path fill="#fff" style="fill: var(--color2, #fff)" d="M12.041 18.261c-0.089 0.065-0.196 0.114-0.323 0.146-0.124 0.035-0.252 0.053-0.385 0.053-0.177 0-0.328-0.028-0.451-0.084-0.121-0.056-0.22-0.134-0.297-0.235-0.077-0.103-0.133-0.227-0.168-0.372-0.032-0.145-0.049-0.304-0.049-0.478 0-0.375 0.084-0.663 0.252-0.863 0.168-0.204 0.413-0.305 0.735-0.305 0.162 0 0.292 0.013 0.39 0.040 0.1 0.027 0.19 0.061 0.27 0.102l-0.137 0.469c-0.068-0.032-0.136-0.058-0.204-0.075-0.065-0.018-0.14-0.027-0.226-0.027-0.159 0-0.28 0.053-0.363 0.159-0.083 0.103-0.124 0.27-0.124 0.5 0 0.094 0.010 0.181 0.031 0.261s0.052 0.149 0.093 0.208c0.041 0.059 0.094 0.106 0.159 0.142 0.068 0.032 0.146 0.049 0.235 0.049 0.097 0 0.18-0.012 0.248-0.035 0.068-0.027 0.128-0.058 0.181-0.093l0.133 0.438z"/>
        <path fill="#fff" style="fill: var(--color2, #fff)" d="M13.961 16.693h-0.624v1.704h-0.593v-1.704h-0.624v-0.509h1.841v0.509z"/>
        <path fill="#fff" style="fill: var(--color2, #fff)" d="M15.75 18.261c-0.089 0.065-0.196 0.114-0.323 0.146-0.124 0.035-0.252 0.053-0.385 0.053-0.177 0-0.328-0.028-0.451-0.084-0.121-0.056-0.22-0.134-0.297-0.235-0.077-0.103-0.133-0.227-0.168-0.372-0.032-0.145-0.049-0.304-0.049-0.478 0-0.375 0.084-0.663 0.252-0.863 0.168-0.204 0.413-0.305 0.735-0.305 0.162 0 0.292 0.013 0.39 0.040 0.1 0.027 0.19 0.061 0.27 0.102l-0.137 0.469c-0.068-0.032-0.136-0.058-0.204-0.075-0.065-0.018-0.14-0.027-0.226-0.027-0.159 0-0.28 0.053-0.363 0.159-0.083 0.103-0.124 0.27-0.124 0.5 0 0.094 0.010 0.181 0.031 0.261s0.052 0.149 0.093 0.208c0.041 0.059 0.094 0.106 0.159 0.142 0.068 0.032 0.146 0.049 0.235 0.049 0.097 0 0.18-0.012 0.248-0.035 0.068-0.027 0.128-0.058 0.181-0.093l0.133 0.438z"/>
        <path fill="#fff" style="fill: var(--color2, #fff)" d="M17.795 18.207c-0.089 0.071-0.209 0.131-0.363 0.181-0.151 0.047-0.311 0.071-0.483 0.071-0.357 0-0.618-0.103-0.784-0.31-0.165-0.209-0.248-0.496-0.248-0.859 0-0.39 0.093-0.682 0.279-0.876s0.447-0.292 0.783-0.292c0.112 0 0.221 0.015 0.328 0.044s0.201 0.078 0.283 0.146c0.083 0.068 0.149 0.159 0.199 0.274s0.075 0.258 0.075 0.429c0 0.062-0.004 0.128-0.013 0.199-0.006 0.071-0.016 0.145-0.031 0.221h-1.328c0.009 0.186 0.056 0.326 0.142 0.421 0.089 0.094 0.23 0.142 0.425 0.142 0.121 0 0.229-0.018 0.323-0.053 0.097-0.038 0.171-0.077 0.221-0.115l0.19 0.376zM16.971 16.583c-0.151 0-0.263 0.046-0.336 0.137-0.071 0.089-0.114 0.208-0.128 0.359h0.823c0.012-0.159-0.013-0.282-0.075-0.367-0.059-0.086-0.153-0.128-0.283-0.128z"/>
        <path fill="#fff" style="fill: var(--color2, #fff)" d="M19.428 16.693h-0.438c-0.018 0.209-0.038 0.418-0.062 0.624s-0.062 0.392-0.115 0.558c-0.050 0.162-0.119 0.295-0.208 0.398-0.089 0.1-0.204 0.151-0.345 0.151-0.171 0-0.292-0.022-0.363-0.066l0.071-0.478c0.047 0.018 0.091 0.027 0.133 0.027 0.059 0 0.111-0.025 0.155-0.075s0.081-0.14 0.111-0.27c0.032-0.13 0.058-0.305 0.075-0.527 0.021-0.224 0.035-0.508 0.044-0.85h1.518v2.213h-0.575v-1.704z"/>
        <path fill="#fff" style="fill: var(--color2, #fff)" d="M21.707 16.693h-0.438c-0.018 0.209-0.038 0.418-0.062 0.624s-0.062 0.392-0.115 0.558c-0.050 0.162-0.119 0.295-0.208 0.398-0.089 0.1-0.204 0.151-0.345 0.151-0.171 0-0.292-0.022-0.363-0.066l0.071-0.478c0.047 0.018 0.091 0.027 0.133 0.027 0.059 0 0.111-0.025 0.155-0.075s0.081-0.14 0.111-0.27c0.032-0.13 0.058-0.305 0.075-0.527 0.021-0.224 0.035-0.508 0.044-0.85h1.518v2.213h-0.575v-1.704z"/>
        <path fill="#fff" style="fill: var(--color2, #fff)" d="M24.551 18.207c-0.089 0.071-0.209 0.131-0.363 0.181-0.151 0.047-0.311 0.071-0.483 0.071-0.357 0-0.618-0.103-0.784-0.31-0.165-0.209-0.248-0.496-0.248-0.859 0-0.39 0.093-0.682 0.279-0.876s0.447-0.292 0.784-0.292c0.112 0 0.221 0.015 0.328 0.044s0.201 0.078 0.283 0.146c0.083 0.068 0.149 0.159 0.199 0.274s0.075 0.258 0.075 0.429c0 0.062-0.004 0.128-0.013 0.199-0.006 0.071-0.016 0.145-0.031 0.221h-1.328c0.009 0.186 0.056 0.326 0.142 0.421 0.089 0.094 0.23 0.142 0.425 0.142 0.121 0 0.229-0.018 0.323-0.053 0.097-0.038 0.171-0.077 0.221-0.115l0.19 0.376zM23.728 16.583c-0.151 0-0.263 0.046-0.336 0.137-0.071 0.089-0.114 0.208-0.128 0.359h0.823c0.012-0.159-0.013-0.282-0.075-0.367-0.059-0.086-0.153-0.128-0.283-0.128z"/>
        <path fill="#fff" style="fill: var(--color2, #fff)" d="M25.029 16.184h0.421l0.066 0.266h0.018c0.077-0.112 0.167-0.195 0.27-0.248 0.106-0.053 0.235-0.080 0.385-0.080 0.277 0 0.485 0.089 0.624 0.266 0.139 0.174 0.208 0.456 0.208 0.845 0 0.189-0.022 0.36-0.066 0.513-0.044 0.151-0.111 0.279-0.199 0.385-0.086 0.106-0.192 0.187-0.319 0.243-0.124 0.056-0.267 0.084-0.429 0.084-0.091 0-0.167-0.007-0.226-0.022-0.059-0.012-0.118-0.032-0.177-0.062v0.907h-0.575v-3.099zM26.016 16.609c-0.112 0-0.201 0.028-0.266 0.084-0.062 0.056-0.111 0.14-0.146 0.252v0.921c0.041 0.032 0.086 0.059 0.133 0.080 0.050 0.018 0.115 0.027 0.195 0.027 0.165 0 0.289-0.058 0.372-0.173 0.083-0.118 0.124-0.311 0.124-0.58 0-0.195-0.032-0.345-0.097-0.451s-0.17-0.159-0.314-0.159z"/>
    </symbol>
    <symbol id="new-sell" viewBox="0 0 32 32">
        <path fill="#46b8bf" style="fill: var(--color1, #46b8bf)" d="M6.538 20.087c-0.982-0.15-1.803-0.261-2.629-0.425-0.878-0.159-1.652-0.327-2.111-1.386-0.201-0.506-0.795-1.004-1.303-1.431-0.113-0.095-0.222-0.138-0.335-0.233-0.202-0.218-0.305-0.497-0.144-0.747 0.461-0.721-0.507-2.207 1.056-2.292 1.927-0.116 3.696-0.847 5.53-1.138 3.251-0.546 6.543-0.337 9.829-0.179 2.706 0.104 5.416 0.259 8.127 0.415 1.894 0.096 3.782 0.428 5.67 0.761 0.212 0.034 0.401 0.096 0.566 0.186 0.189 0.062 0.434 0.171 0.4 0.384-0.006 0.236-0.265 0.259-0.445 0.301-0.331 0.108-0.728 0.064-1.163 0.468 0.717 0.12 1.274 0.203 1.86 0.309 0.481 0.115 0.811 0.296 0.333 0.809-0.194 0.174-0.265 0.259-0.016 0.42 0.923 0.679 0.492 1.135-0.36 1.576 0.297 0.105 0.538 0.162 0.779 0.22-0.299 0.471-0.865 0.285-1.15 0.624 0.094 0.175 0.345 0.048 0.391 0.28-0.076 0.033-0.175 0.094-0.227 0.098-0.548 0.022-1.072 0.015-1.592 0.061-0.803 0.096-0.946 0.266-0.793 1.117 0.051 0.284-0.152 0.354-0.304 0.419-0.203 0.070-0.383 0.112-0.586 0.182-0.18 0.042-0.307 0.079-0.487 0.121 0.079 0.307 0.33 0.181 0.49 0.219 0.189 0.062 0.373 0.072 0.694 0.149-0.568 0.39-1.144 0.388-1.64 0.405-5.938 0.362-11.951 0.47-17.911 0.284-0.841-0.031-1.72 0.098-2.468-0.674-0.513-0.479-0.696-0.777-0.062-1.304zM27.003 14.579c-1.652-0.327-3.342-0.493-5.044-0.187 1.653 0.039 3.334 0.101 5.044 0.187z"/>
        <path fill="#fff" style="fill: var(--color2, #fff)" d="M8.951 17.086h-1.133v1.297h-0.606v-3.099h0.606v1.262h1.133v-1.262h0.606v3.099h-0.606v-1.297z"/>
        <path fill="#fff" style="fill: var(--color2, #fff)" d="M10.241 17.276c0-0.375 0.091-0.663 0.274-0.863 0.183-0.204 0.44-0.305 0.77-0.305 0.177 0 0.331 0.028 0.46 0.084s0.238 0.136 0.323 0.239c0.086 0.1 0.149 0.223 0.19 0.367 0.044 0.145 0.066 0.304 0.066 0.478 0 0.375-0.091 0.664-0.274 0.868-0.18 0.201-0.435 0.301-0.766 0.301-0.177 0-0.331-0.028-0.46-0.084s-0.239-0.134-0.328-0.235c-0.086-0.103-0.15-0.227-0.195-0.372-0.041-0.145-0.062-0.304-0.062-0.478zM10.834 17.276c0 0.097 0.009 0.187 0.027 0.27s0.044 0.155 0.080 0.217c0.035 0.062 0.081 0.111 0.137 0.146 0.059 0.032 0.128 0.049 0.208 0.049 0.15 0 0.263-0.055 0.336-0.164s0.111-0.282 0.111-0.518c0-0.204-0.034-0.367-0.102-0.491-0.068-0.127-0.183-0.19-0.345-0.19-0.142 0-0.252 0.053-0.332 0.159s-0.12 0.28-0.12 0.522z"/>
        <path fill="#fff" style="fill: var(--color2, #fff)" d="M12.99 16.174c0.103-0.009 0.227-0.018 0.372-0.027 0.148-0.009 0.305-0.013 0.474-0.013 0.325 0 0.555 0.047 0.691 0.142 0.139 0.091 0.208 0.23 0.208 0.416 0 0.103-0.030 0.204-0.089 0.301s-0.152 0.168-0.279 0.212v0.018c0.159 0.035 0.274 0.099 0.345 0.19 0.071 0.089 0.106 0.204 0.106 0.345 0 0.221-0.086 0.387-0.257 0.496-0.168 0.109-0.44 0.164-0.815 0.164-0.124 0-0.255-0.004-0.394-0.013-0.139-0.006-0.26-0.015-0.363-0.027v-2.204zM13.553 17.94c0.041 0.006 0.080 0.010 0.115 0.013s0.080 0.004 0.133 0.004c0.159 0 0.273-0.022 0.341-0.066s0.102-0.112 0.102-0.204c0-0.077-0.030-0.139-0.089-0.186-0.056-0.050-0.158-0.075-0.305-0.075h-0.297v0.513zM13.858 17.073c0.094 0 0.171-0.022 0.23-0.066 0.062-0.047 0.093-0.106 0.093-0.177 0-0.077-0.027-0.134-0.080-0.173-0.050-0.041-0.143-0.062-0.279-0.062-0.068 0-0.122 0.001-0.164 0.004-0.038 0.003-0.074 0.006-0.106 0.009v0.465h0.305z"/>
        <path fill="#fff" style="fill: var(--color2, #fff)" d="M16.823 17.374l0.022-0.314h-0.013l-0.19 0.323-0.788 1h-0.363v-2.213h0.575v1.054l-0.027 0.301h0.018l0.181-0.314 0.797-1.040h0.363v2.213h-0.575v-1.009z"/>
        <path fill="#fff" style="fill: var(--color2, #fff)" d="M19.466 17.511h-0.722v0.872h-0.575v-2.213h0.575v0.832h0.722v-0.832h0.575v2.213h-0.575v-0.872z"/>
        <path fill="#fff" style="fill: var(--color2, #fff)" d="M21.542 17.467h-0.155v0.916h-0.575v-2.213h0.575v0.943l0.137-0.062 0.518-0.881h0.615l-0.536 0.841-0.226 0.168 0.248 0.173 0.598 1.031h-0.66l-0.54-0.916z"/>
        <path fill="#fff" style="fill: var(--color2, #fff)" d="M23.23 16.298c0.118-0.053 0.258-0.094 0.421-0.124 0.162-0.032 0.332-0.049 0.509-0.049 0.153 0 0.282 0.019 0.385 0.058 0.103 0.035 0.184 0.087 0.243 0.155 0.062 0.068 0.105 0.149 0.128 0.243 0.027 0.094 0.040 0.201 0.040 0.319 0 0.13-0.004 0.261-0.013 0.394-0.009 0.13-0.015 0.258-0.018 0.385 0 0.127 0.004 0.251 0.013 0.372 0.009 0.118 0.031 0.23 0.066 0.336h-0.469l-0.093-0.305h-0.022c-0.059 0.091-0.142 0.171-0.248 0.239-0.103 0.065-0.238 0.097-0.403 0.097-0.103 0-0.196-0.015-0.279-0.044-0.083-0.032-0.153-0.077-0.212-0.133-0.059-0.059-0.105-0.127-0.137-0.204-0.032-0.080-0.049-0.168-0.049-0.266 0-0.136 0.029-0.249 0.089-0.341 0.062-0.094 0.149-0.17 0.261-0.226 0.115-0.059 0.251-0.099 0.407-0.119 0.159-0.024 0.336-0.031 0.531-0.022 0.021-0.165 0.009-0.283-0.035-0.354-0.044-0.074-0.143-0.111-0.297-0.111-0.115 0-0.238 0.012-0.367 0.035-0.127 0.024-0.232 0.055-0.314 0.093l-0.137-0.429zM23.96 17.945c0.115 0 0.207-0.025 0.274-0.075 0.068-0.053 0.118-0.109 0.151-0.168v-0.288c-0.091-0.009-0.18-0.010-0.266-0.004-0.083 0.006-0.156 0.019-0.221 0.040s-0.117 0.050-0.155 0.089c-0.038 0.038-0.058 0.087-0.058 0.146 0 0.083 0.024 0.148 0.071 0.195 0.050 0.044 0.118 0.066 0.204 0.066z"/>
    </symbol>
    <symbol id="search" viewBox="0 0 32 32">
        <path d="M13.686 25.615c-7.062 0-12.808-5.746-12.808-12.808s5.746-12.808 12.808-12.808c7.062 0 12.808 5.746 12.808 12.808 0.002 7.062-5.744 12.808-12.808 12.808zM13.686 1.97c-5.974 0-10.837 4.861-10.837 10.837s4.861 10.837 10.837 10.837c5.976 0 10.837-4.861 10.837-10.837 0.002-5.976-4.861-10.837-10.837-10.837z"/>
        <path d="M24.326 23.884l6.795 6.715-1.386 1.402-6.795-6.715 1.386-1.402z"/>
        <path d="M24.688 24.618c0 0.552-0.448 1-1 1s-1-0.448-1-1c0-0.552 0.448-1 1-1s1 0.448 1 1z"/>
    </symbol>
</svg>
