<svg width="32" height="32" viewBox="0 0 32 32" fill="none" xmlns="http://www.w3.org/2000/svg">
<path d="M18.536 2.32302V4.86802C21.936 4.88702 25.656 4.83302 29.057 4.88702C29.177 4.86616 29.3001 4.87357 29.4167 4.90864C29.5333 4.94372 29.6401 5.00551 29.7287 5.08909C29.8172 5.17267 29.885 5.27575 29.9267 5.39014C29.9685 5.50452 29.9829 5.62706 29.969 5.74802C30.023 12.014 29.956 18.638 30.001 24.905C29.981 25.305 30.01 26.023 29.948 26.422C29.869 26.931 29.642 27.029 29.131 27.098C28.845 27.137 28.367 27.132 28.086 27.145C25.294 27.131 22.504 27.134 19.712 27.135H18.537V29.682L2 27.133V4.87302L18.536 2.32202" fill="#283C82"/>
<path d="M18.5361 5.82202H29.0361V26.18H18.5361V23.635H26.8061V22.363H18.5361V20.773H26.8061V19.5H18.5361V17.91H26.8061V16.637H18.5361V15.047H26.8061V13.774H18.5361V12.184H26.8061V10.911H18.5361V9.32102H26.8061V8.04802H18.5361V5.82202Z" fill="white"/>
<path d="M8.5731 11.4429C9.1731 11.4079 9.7821 11.3829 10.3861 11.3509C10.8091 13.4979 11.2421 15.6419 11.7001 17.7799C12.0591 15.5719 12.4571 13.3709 12.8421 11.1669C13.4776 11.1441 14.1127 11.1108 14.7471 11.0669C14.0281 14.1489 13.3981 17.2569 12.6131 20.3209C12.0821 20.5979 11.2871 20.3079 10.6571 20.3529C10.2341 18.2469 9.7411 16.1529 9.3621 14.0389C8.9901 16.0999 8.5061 18.1329 8.0801 20.1749C7.46943 20.1429 6.85643 20.1059 6.2411 20.0639C5.7131 17.2639 5.0931 14.4849 4.6001 11.6789C5.1441 11.6539 5.6911 11.6309 6.2351 11.6119C6.5631 13.6379 6.9351 15.6549 7.2211 17.6839C7.6691 15.6039 8.1281 13.5229 8.5731 11.4429Z" fill="white"/>
</svg>
