<svg width="36" height="36" viewBox="0 0 36 36" fill="none" xmlns="http://www.w3.org/2000/svg">
<path fill-rule="evenodd" clip-rule="evenodd" d="M6.7428 7.97148L6.31969 3.2961C6.2674 2.73281 5.79212 2.29999 5.23043 2.29999H2.39468C1.79 2.29999 1.30005 2.78994 1.30005 3.39462C1.30005 3.9993 1.79 4.48925 2.39468 4.48925H4.2297L4.25265 4.74583C4.25341 4.75107 4.25418 4.75708 4.25418 4.75708L4.25454 4.76049C4.25576 4.77244 4.26311 4.85313 4.27818 5.01984C4.30863 5.35671 4.37155 6.05555 4.48294 7.29514C4.70573 9.77437 5.12246 14.4169 5.86128 22.6536C5.96703 23.8603 6.62403 25.1862 7.76071 26.0843L7.99518 26.2695L7.81087 26.5047C5.80007 29.0706 7.63909 32.86 10.9086 32.86C13.6237 32.86 15.5358 30.1503 14.6047 27.5911L14.4582 27.1885H22.9589L22.8124 27.5911C21.8812 30.1503 23.7934 32.86 26.5085 32.86C28.6802 32.86 30.4389 31.0953 30.4389 28.9296C30.4389 26.7643 28.6738 24.9993 26.5085 24.9993H10.9152C9.72988 24.9993 8.6996 24.2876 8.255 23.2428L8.08819 22.8508L30.8289 21.5175C31.3048 21.4916 31.7081 21.155 31.8295 20.6871L31.8298 20.686L34.6649 9.33873L34.6653 9.33715C34.8425 8.64399 34.3156 7.97148 33.6078 7.97148H6.7428ZM29.9007 19.3675L7.88646 20.6592L6.94099 10.1674H32.1989L29.9007 19.3675ZM10.9086 30.6708C9.94595 30.6708 9.16745 29.8922 9.16745 28.9296C9.16745 27.967 9.94595 27.1885 10.9086 27.1885C11.8712 27.1885 12.6497 27.967 12.6497 28.9296C12.6497 29.8922 11.8712 30.6708 10.9086 30.6708ZM26.5151 30.6708C25.5525 30.6708 24.774 29.8923 24.774 28.9296C24.774 27.967 25.5525 27.1885 26.5151 27.1885C27.4778 27.1885 28.2563 27.967 28.2563 28.9296C28.2563 29.8931 27.4702 30.6708 26.5151 30.6708Z" fill="#192C5A"/>
</svg>
