<svg width="24" height="24" viewBox="0 0 24 24" fill="none" xmlns="http://www.w3.org/2000/svg">
<path d="M2 3.99C2 2.9 2.89 2 4 2H8C8.53043 2 9.03914 2.21071 9.41421 2.58579C9.78929 2.96086 10 3.46957 10 4V20C10 20.5304 9.78929 21.0391 9.41421 21.4142C9.03914 21.7893 8.53043 22 8 22H4C3.46957 22 2.96086 21.7893 2.58579 21.4142C2.21071 21.0391 2 20.5304 2 20V4V3.99ZM6 19C6.26522 19 6.51957 18.8946 6.70711 18.7071C6.89464 18.5196 7 18.2652 7 18C7 17.7348 6.89464 17.4804 6.70711 17.2929C6.51957 17.1054 6.26522 17 6 17C5.73478 17 5.48043 17.1054 5.29289 17.2929C5.10536 17.4804 5 17.7348 5 18C5 18.2652 5.10536 18.5196 5.29289 18.7071C5.48043 18.8946 5.73478 19 6 19Z" fill="#CF2520"/>
<path d="M11 18.66V7.33999L13.08 5.26999C13.2649 5.08434 13.4846 4.93703 13.7266 4.83652C13.9686 4.73601 14.228 4.68427 14.49 4.68427C14.752 4.68427 15.0114 4.73601 15.2534 4.83652C15.4954 4.93703 15.7151 5.08434 15.9 5.26999L18.73 8.09999C19.1025 8.47471 19.3116 8.98161 19.3116 9.50999C19.3116 10.0384 19.1025 10.5453 18.73 10.92L11 18.66Z" fill="#429471"/>
<path d="M11 22V20.3L11.01 20.06L17.07 14H20.01C21.11 14 22 14.89 22 16V20C22 20.5304 21.7893 21.0391 21.4142 21.4142C21.0391 21.7893 20.5304 22 20 22H11Z" fill="#1F46A4"/>
</svg>
