<svg width="24" height="24" viewBox="0 0 24 24" fill="none" xmlns="http://www.w3.org/2000/svg">
<path d="M7.46223 6.00714L7.4594 6.01523L7.43514 6.0837C7.40728 6.16217 7.35143 6.31914 7.23947 6.6331C7.1275 6.94709 7.07175 7.1043 7.04397 7.18307L7.01963 7.25254L7.01624 7.2625L7.01506 7.26627L7.01357 7.2718L7.01355 7.27187C7.01331 7.27288 7.0123 7.27711 7.01162 7.28257L7.01161 7.28262C7.01135 7.28469 7.01036 7.29261 7.01114 7.30272C7.0115 7.30741 7.01266 7.31911 7.01828 7.33287C7.02255 7.34198 7.03154 7.35593 7.0357 7.36099C7.05471 7.37777 7.07734 7.38923 7.11084 7.29501L7.07734 7.38923L7.07748 7.38928L7.07891 7.38979L7.07911 7.38986L7.08295 7.39121L7.08341 7.39137L7.09496 7.39537L7.09523 7.39546C7.10503 7.39882 7.11821 7.40327 7.13463 7.40866C7.16745 7.41944 7.21328 7.434 7.27084 7.45112C7.38583 7.48532 7.54844 7.52995 7.7485 7.57502C8.14663 7.66472 8.70347 7.75853 9.33455 7.77152C10.3436 7.7923 11.7233 7.72785 12.8344 6.90308C12.9145 6.84363 13.026 6.84079 13.1111 6.89634C13.6657 7.25833 14.2669 7.38979 14.8011 7.5066C14.8597 7.5194 14.9174 7.53203 14.9742 7.54477C15.4248 7.64581 15.8381 7.70075 16.1379 7.73062C16.2885 7.74562 16.4122 7.75447 16.4998 7.75961C16.5437 7.76219 16.5786 7.76384 16.6035 7.76487L16.6038 7.76489L16.6327 7.76599L16.6333 7.766L16.6419 7.76628L16.6421 7.76629L16.6449 7.76637L16.6451 7.76637L16.6465 7.76641L16.6465 7.76641L16.6492 7.66645C16.6465 7.76641 16.6989 7.7532 16.7368 7.71464C16.7393 7.70987 16.7436 7.69951 16.7454 7.69393C16.7471 7.68791 16.7478 7.68302 16.748 7.68185L16.748 7.68177C16.7485 7.67857 16.7487 7.67603 16.7488 7.67545L16.7488 7.67541L16.749 7.67217L16.7491 7.67042L16.7492 7.66847L16.7495 7.65896L16.7515 7.58587L16.767 7.00264L16.7824 6.41959L16.7844 6.34686L16.7846 6.33808L16.7846 6.33875L16.7844 6.34133L16.7839 6.34649L16.7839 6.34656C16.7838 6.3475 16.7832 6.35152 16.7821 6.35651C16.7808 6.36123 16.7778 6.37021 16.776 6.37446C16.7396 6.41635 16.6868 6.4322 16.6847 6.34568L16.688 6.23364L16.6852 6.23355L16.6846 6.23353L16.6671 6.23286C16.6671 6.23286 16.667 6.23286 16.667 6.23286C16.6504 6.23216 16.6242 6.23094 16.5897 6.22891C16.5203 6.22484 16.4174 6.21754 16.2899 6.20484C16.0334 6.17929 15.6842 6.13255 15.3097 6.0486C14.907 5.95829 14.5539 5.87151 14.2591 5.75161C13.9653 5.63212 13.7371 5.48263 13.5788 5.27155L13.3046 4.90587C13.151 4.70116 12.8474 4.69127 12.6809 4.88556L12.3834 5.23261C11.5977 6.1492 10.3954 6.2597 9.36611 6.23851C8.86385 6.22817 8.41236 6.15282 8.08549 6.07918C7.92305 6.04258 7.794 6.007 7.70794 5.98141C7.66498 5.96864 7.63294 5.95841 7.61303 5.95187L7.59226 5.94492L7.589 5.94379L7.54773 6.06165C7.51637 6.12782 7.4817 6.10277 7.46071 6.06503C7.45923 6.05884 7.45738 6.04525 7.45716 6.03791C7.45721 6.02969 7.45832 6.0233 7.45859 6.02171L7.45861 6.02163C7.45934 6.01736 7.46021 6.01405 7.46041 6.01328L7.46043 6.01322L7.46162 6.00905L7.46223 6.00714ZM7.46223 6.00714L7.46225 6.0071C7.46231 6.0069 7.46236 6.00678 7.46236 6.00678C7.46236 6.00678 7.46232 6.00688 7.46223 6.00714ZM16.5493 7.66221C16.5493 7.6624 16.5493 7.66236 16.5493 7.66182L16.5493 7.66215C16.5493 7.66217 16.5493 7.66219 16.5493 7.66221ZM16.5493 7.66221C16.5726 7.66342 16.5921 7.66432 16.6076 7.66496L16.5493 7.66221ZM7.55635 6.03831L7.55 6.05667L7.55716 6.03859L7.59077 5.94441L7.59061 5.94436L7.5898 5.94407L7.55635 6.03831ZM7.5237 6.13283L7.5238 6.13287L7.5237 6.13283Z" fill="white" stroke="white" stroke-width="0.2"/>
<mask id="path-2-outside-1" maskUnits="userSpaceOnUse" x="3.073" y="12" width="19" height="11" fill="black">
<rect fill="white" x="3.073" y="12" width="19" height="11"/>
<path fill-rule="evenodd" clip-rule="evenodd" d="M15.3335 13.0005V15.0687C15.492 15.1985 15.7477 15.3354 16.1349 15.4837C16.3833 15.5789 16.6576 15.6689 16.9573 15.765L17.0912 15.8079L17.0912 15.8079C17.3475 15.8899 17.6194 15.9768 17.8883 16.0709C19.1009 16.4952 20.6253 17.1798 20.9854 18.8603C21.087 19.3347 21.0813 19.996 21.061 20.481C21.0503 20.7355 21.0343 20.9644 21.0211 21.1295C21.0144 21.2123 21.0084 21.2795 21.004 21.3265L20.9987 21.3813L20.9972 21.3963L20.9967 21.4018L20.9966 21.4025L20.9343 22H12.4063H12.0002H3.47216L3.40986 21.4025L3.40979 21.4018L3.40923 21.3963L3.40772 21.3813L3.40245 21.3265C3.39806 21.2795 3.39205 21.2123 3.3854 21.1295C3.37212 20.9644 3.35616 20.7355 3.34548 20.481C3.32515 19.996 3.31941 19.3347 3.42107 18.8603C3.78118 17.1798 5.30551 16.4952 6.51818 16.0709C6.78703 15.9768 7.05891 15.8899 7.31526 15.8079L7.31527 15.8079L7.44916 15.765C7.74889 15.6689 8.02312 15.5789 8.27153 15.4837C8.65876 15.3354 8.91446 15.1985 9.07293 15.0687V13.0005L10.4063 13V15.5555L10.2729 15.7333C9.90009 16.2304 9.29398 16.5199 8.74842 16.7289C8.46185 16.8386 8.15594 16.9386 7.85644 17.0346L7.7181 17.0789L7.71806 17.079C7.4612 17.1611 7.20888 17.2418 6.95857 17.3294C5.72598 17.7607 4.91697 18.2429 4.7248 19.1397C4.6628 19.429 4.65707 19.9343 4.67765 20.4251C4.68116 20.509 4.68532 20.5901 4.68978 20.6667H12.0002H12.4063H19.7167C19.7211 20.5901 19.7253 20.509 19.7288 20.4251C19.7494 19.9343 19.7436 19.429 19.6816 19.1397C19.4895 18.2429 18.6805 17.7607 17.4479 17.3294C17.1976 17.2418 16.9453 17.1611 16.6884 17.079L16.6883 17.0789L16.55 17.0346C16.2505 16.9386 15.9446 16.8386 15.658 16.7289C15.1125 16.5199 14.5064 16.2304 14.1335 15.7333L14.0002 15.5555V13L15.3335 13.0005Z"/>
</mask>
<path fill-rule="evenodd" clip-rule="evenodd" d="M15.3335 13.0005V15.0687C15.492 15.1985 15.7477 15.3354 16.1349 15.4837C16.3833 15.5789 16.6576 15.6689 16.9573 15.765L17.0912 15.8079L17.0912 15.8079C17.3475 15.8899 17.6194 15.9768 17.8883 16.0709C19.1009 16.4952 20.6253 17.1798 20.9854 18.8603C21.087 19.3347 21.0813 19.996 21.061 20.481C21.0503 20.7355 21.0343 20.9644 21.0211 21.1295C21.0144 21.2123 21.0084 21.2795 21.004 21.3265L20.9987 21.3813L20.9972 21.3963L20.9967 21.4018L20.9966 21.4025L20.9343 22H12.4063H12.0002H3.47216L3.40986 21.4025L3.40979 21.4018L3.40923 21.3963L3.40772 21.3813L3.40245 21.3265C3.39806 21.2795 3.39205 21.2123 3.3854 21.1295C3.37212 20.9644 3.35616 20.7355 3.34548 20.481C3.32515 19.996 3.31941 19.3347 3.42107 18.8603C3.78118 17.1798 5.30551 16.4952 6.51818 16.0709C6.78703 15.9768 7.05891 15.8899 7.31526 15.8079L7.31527 15.8079L7.44916 15.765C7.74889 15.6689 8.02312 15.5789 8.27153 15.4837C8.65876 15.3354 8.91446 15.1985 9.07293 15.0687V13.0005L10.4063 13V15.5555L10.2729 15.7333C9.90009 16.2304 9.29398 16.5199 8.74842 16.7289C8.46185 16.8386 8.15594 16.9386 7.85644 17.0346L7.7181 17.0789L7.71806 17.079C7.4612 17.1611 7.20888 17.2418 6.95857 17.3294C5.72598 17.7607 4.91697 18.2429 4.7248 19.1397C4.6628 19.429 4.65707 19.9343 4.67765 20.4251C4.68116 20.509 4.68532 20.5901 4.68978 20.6667H12.0002H12.4063H19.7167C19.7211 20.5901 19.7253 20.509 19.7288 20.4251C19.7494 19.9343 19.7436 19.429 19.6816 19.1397C19.4895 18.2429 18.6805 17.7607 17.4479 17.3294C17.1976 17.2418 16.9453 17.1611 16.6884 17.079L16.6883 17.0789L16.55 17.0346C16.2505 16.9386 15.9446 16.8386 15.658 16.7289C15.1125 16.5199 14.5064 16.2304 14.1335 15.7333L14.0002 15.5555V13L15.3335 13.0005Z" fill="white"/>
<path d="M15.3335 15.0687L15.2068 15.2234L15.1335 15.1634V15.0687H15.3335ZM15.3335 13.0005L15.3336 12.8005L15.5335 12.8006V13.0005H15.3335ZM16.1349 15.4837L16.0634 15.6705L16.1349 15.4837ZM16.9573 15.765L16.8963 15.9555L16.8962 15.9555L16.9573 15.765ZM17.0912 15.8079L17.1522 15.6174L17.1544 15.6182L17.0912 15.8079ZM17.0912 15.8079L17.0303 15.9984L17.0279 15.9976L17.0912 15.8079ZM17.8883 16.0709L17.8222 16.2597H17.8222L17.8883 16.0709ZM20.9854 18.8603L20.7898 18.9022H20.7898L20.9854 18.8603ZM21.061 20.481L21.2608 20.4894L21.2608 20.4894L21.061 20.481ZM21.0211 21.1295L20.8217 21.1135L21.0211 21.1295ZM21.004 21.3265L21.2031 21.3451L21.2031 21.3456L21.004 21.3265ZM20.9987 21.3813L21.1978 21.4004L21.1977 21.4013L20.9987 21.3813ZM20.9972 21.3963L21.1962 21.4163L21.1962 21.4167L20.9972 21.3963ZM20.9967 21.4018L21.1956 21.4222L21.1956 21.4222L20.9967 21.4018ZM20.9966 21.4025L21.1955 21.4229L21.1955 21.4232L20.9966 21.4025ZM20.9343 22L21.1332 22.0207L21.1145 22.2H20.9343V22ZM3.47216 22V22.2H3.29193L3.27324 22.0207L3.47216 22ZM3.40986 21.4025L3.60876 21.3815L3.60878 21.3817L3.40986 21.4025ZM3.40979 21.4018L3.21089 21.4228L3.21083 21.4222L3.40979 21.4018ZM3.40923 21.3963L3.21027 21.4167L3.21023 21.4163L3.40923 21.3963ZM3.40772 21.3813L3.20872 21.4013L3.20864 21.4004L3.40772 21.3813ZM3.40245 21.3265L3.20337 21.3456L3.20332 21.3451L3.40245 21.3265ZM3.3854 21.1295L3.58475 21.1135L3.3854 21.1295ZM3.34548 20.481L3.14566 20.4894V20.4894L3.34548 20.481ZM3.42107 18.8603L3.61663 18.9022L3.42107 18.8603ZM6.51818 16.0709L6.58424 16.2597L6.51818 16.0709ZM7.31526 15.8079L7.37851 15.9977L7.37617 15.9984L7.31526 15.8079ZM7.31527 15.8079L7.25202 15.6181L7.2543 15.6174L7.31527 15.8079ZM7.44916 15.765L7.51025 15.9555L7.51014 15.9555L7.44916 15.765ZM8.27153 15.4837L8.34307 15.6705L8.27153 15.4837ZM9.07293 15.0687H9.27293V15.1634L9.19964 15.2234L9.07293 15.0687ZM9.07293 13.0005H8.87293V12.8006L9.07285 12.8005L9.07293 13.0005ZM10.4063 13L10.4062 12.8L10.6063 12.7999V13H10.4063ZM10.4063 15.5555H10.6063V15.6222L10.5663 15.6755L10.4063 15.5555ZM10.2729 15.7333L10.4329 15.8533V15.8533L10.2729 15.7333ZM8.74842 16.7289L8.67688 16.5421V16.5421L8.74842 16.7289ZM7.85644 17.0346L7.91753 17.2251L7.91742 17.2251L7.85644 17.0346ZM7.7181 17.0789L7.77909 17.2694L7.77776 17.2698L7.7181 17.0789ZM7.71806 17.079L7.65712 16.8885L7.6584 16.8881L7.71806 17.079ZM6.95857 17.3294L7.02463 17.5182L6.95857 17.3294ZM4.7248 19.1397L4.52924 19.0978V19.0978L4.7248 19.1397ZM4.67765 20.4251L4.87747 20.4167V20.4167L4.67765 20.4251ZM4.68978 20.6667V20.8667H4.50108L4.49012 20.6783L4.68978 20.6667ZM19.7167 20.6667L19.9163 20.6783L19.9054 20.8667H19.7167V20.6667ZM19.7288 20.4251L19.9286 20.4335V20.4335L19.7288 20.4251ZM19.6816 19.1397L19.8772 19.0978L19.8772 19.0978L19.6816 19.1397ZM17.4479 17.3294L17.5139 17.1406H17.5139L17.4479 17.3294ZM16.6884 17.079L16.6275 17.2695L16.6265 17.2691L16.6884 17.079ZM16.6883 17.0789L16.7493 16.8885L16.7503 16.8888L16.6883 17.0789ZM16.55 17.0346L16.489 17.2251L16.4889 17.2251L16.55 17.0346ZM15.658 16.7289L15.7296 16.5421V16.5421L15.658 16.7289ZM14.1335 15.7333L13.9735 15.8533V15.8533L14.1335 15.7333ZM14.0002 15.5555L13.8402 15.6755L13.8002 15.6222V15.5555H14.0002ZM14.0002 13H13.8002V12.7999L14.0003 12.8L14.0002 13ZM15.1335 15.0687V13.0005H15.5335V15.0687H15.1335ZM16.0634 15.6705C15.669 15.5195 15.3899 15.3734 15.2068 15.2234L15.4602 14.914C15.5941 15.0236 15.8264 15.1514 16.2064 15.297L16.0634 15.6705ZM16.8962 15.9555C16.5965 15.8593 16.3175 15.7678 16.0634 15.6705L16.2064 15.297C16.4491 15.3899 16.7186 15.4784 17.0184 15.5746L16.8962 15.9555ZM17.0302 15.9984L16.8963 15.9555L17.0183 15.5746L17.1522 15.6174L17.0302 15.9984ZM17.0279 15.9976L17.0279 15.9976L17.1544 15.6182L17.1544 15.6182L17.0279 15.9976ZM17.8222 16.2597C17.5563 16.1666 17.287 16.0805 17.0303 15.9984L17.1521 15.6174C17.4081 15.6993 17.6825 15.787 17.9543 15.8821L17.8222 16.2597ZM20.7898 18.9022C20.4549 17.3393 19.038 16.6851 17.8222 16.2597L17.9543 15.8821C19.1638 16.3054 20.7956 17.0202 21.1809 18.8184L20.7898 18.9022ZM20.8611 20.4726C20.8815 19.987 20.8855 19.3489 20.7898 18.9022L21.1809 18.8184C21.2885 19.3205 21.2811 20.0051 21.2608 20.4894L20.8611 20.4726ZM20.8217 21.1135C20.8348 20.9502 20.8506 20.724 20.8611 20.4726L21.2608 20.4894C21.25 20.7471 21.2338 20.9786 21.2204 21.1456L20.8217 21.1135ZM20.8049 21.3079C20.8092 21.2616 20.8151 21.1953 20.8217 21.1135L21.2204 21.1456C21.2137 21.2293 21.2076 21.2974 21.2031 21.3451L20.8049 21.3079ZM20.7996 21.3622L20.8049 21.3073L21.2031 21.3456L21.1978 21.4004L20.7996 21.3622ZM20.7982 21.3763L20.7997 21.3613L21.1977 21.4013L21.1962 21.4163L20.7982 21.3763ZM20.7977 21.3814L20.7983 21.3759L21.1962 21.4167L21.1956 21.4222L20.7977 21.3814ZM20.7976 21.382L20.7977 21.3813L21.1956 21.4222L21.1955 21.4229L20.7976 21.382ZM20.7354 21.9792L20.7977 21.3817L21.1955 21.4232L21.1332 22.0207L20.7354 21.9792ZM12.4063 21.8H20.9343V22.2H12.4063V21.8ZM12.4063 22.2H12.0002V21.8H12.4063V22.2ZM12.0002 22.2H3.47216V21.8H12.0002V22.2ZM3.27324 22.0207L3.21094 21.4232L3.60878 21.3817L3.67108 21.9792L3.27324 22.0207ZM3.21097 21.4234L3.2109 21.4228L3.60868 21.3808L3.60876 21.3815L3.21097 21.4234ZM3.21083 21.4222L3.21027 21.4167L3.60818 21.3759L3.60875 21.3814L3.21083 21.4222ZM3.21023 21.4163L3.20872 21.4013L3.60673 21.3613L3.60823 21.3763L3.21023 21.4163ZM3.20864 21.4004L3.20337 21.3456L3.60154 21.3073L3.60681 21.3622L3.20864 21.4004ZM3.20332 21.3451C3.19886 21.2974 3.19277 21.2293 3.18604 21.1456L3.58475 21.1135C3.59133 21.1953 3.59726 21.2616 3.60159 21.3079L3.20332 21.3451ZM3.18604 21.1456C3.17262 20.9786 3.15646 20.7471 3.14566 20.4894L3.54531 20.4726C3.55585 20.724 3.57163 20.9502 3.58475 21.1135L3.18604 21.1456ZM3.14566 20.4894C3.12535 20.0051 3.11792 19.3205 3.22551 18.8184L3.61663 18.9022C3.52091 19.3489 3.52494 19.987 3.54531 20.4726L3.14566 20.4894ZM3.22551 18.8184C3.61083 17.0202 5.2426 16.3054 6.45212 15.8821L6.58424 16.2597C5.36841 16.6851 3.95153 17.3393 3.61663 18.9022L3.22551 18.8184ZM6.45212 15.8821C6.72394 15.787 6.99839 15.6993 7.25434 15.6174L7.37617 15.9984C7.11943 16.0805 6.85011 16.1666 6.58424 16.2597L6.45212 15.8821ZM7.25201 15.6182L7.25203 15.6182L7.37852 15.9976L7.3785 15.9976L7.25201 15.6182ZM7.2543 15.6174L7.38819 15.5746L7.51014 15.9555L7.37625 15.9984L7.2543 15.6174ZM7.38807 15.5746C7.68784 15.4784 7.95732 15.3899 8.2 15.297L8.34307 15.6705C8.08892 15.7678 7.80993 15.8593 7.51025 15.9555L7.38807 15.5746ZM8.2 15.297C8.58008 15.1514 8.81236 15.0236 8.94622 14.914L9.19964 15.2234C9.01656 15.3734 8.73744 15.5195 8.34307 15.6705L8.2 15.297ZM8.87293 15.0687V13.0005H9.27293V15.0687H8.87293ZM9.07285 12.8005L10.4062 12.8L10.4063 13.2L9.07301 13.2005L9.07285 12.8005ZM10.6063 13V15.5555H10.2063V13H10.6063ZM10.5663 15.6755L10.4329 15.8533L10.1129 15.6133L10.2463 15.4355L10.5663 15.6755ZM10.4329 15.8533C10.0233 16.3995 9.369 16.7053 8.81995 16.9156L8.67688 16.5421C9.21895 16.3345 9.77685 16.0614 10.1129 15.6133L10.4329 15.8533ZM8.81995 16.9156C8.52767 17.0276 8.21702 17.129 7.91753 17.2251L7.79535 16.8442C8.09487 16.7481 8.39604 16.6497 8.67688 16.5421L8.81995 16.9156ZM7.91742 17.2251L7.77909 17.2694L7.65712 16.8885L7.79545 16.8442L7.91742 17.2251ZM7.77776 17.2698L7.77771 17.2698L7.6584 16.8881L7.65845 16.888L7.77776 17.2698ZM7.77899 17.2694C7.52169 17.3517 7.27195 17.4316 7.02463 17.5182L6.89251 17.1406C7.1458 17.052 7.40071 16.9705 7.65713 16.8885L7.77899 17.2694ZM7.02463 17.5182C5.7893 17.9505 5.08737 18.4022 4.92036 19.1816L4.52924 19.0978C4.74658 18.0835 5.66266 17.571 6.89251 17.1406L7.02463 17.5182ZM4.92036 19.1816C4.86433 19.4431 4.85684 19.9248 4.87747 20.4167L4.47782 20.4335C4.45729 19.9438 4.46128 19.4149 4.52924 19.0978L4.92036 19.1816ZM4.87747 20.4167C4.88094 20.4995 4.88504 20.5795 4.88944 20.655L4.49012 20.6783C4.4856 20.6008 4.48139 20.5186 4.47782 20.4335L4.87747 20.4167ZM4.68978 20.4667H12.0002V20.8667H4.68978V20.4667ZM12.0002 20.4667H12.4063V20.8667H12.0002V20.4667ZM19.7167 20.8667H12.4063V20.4667H19.7167V20.8667ZM19.9286 20.4335C19.9251 20.5186 19.9208 20.6008 19.9163 20.6783L19.517 20.655C19.5214 20.5795 19.5255 20.4995 19.529 20.4167L19.9286 20.4335ZM19.8772 19.0978C19.9452 19.4149 19.9492 19.9438 19.9286 20.4335L19.529 20.4167C19.5496 19.9248 19.5421 19.4431 19.4861 19.1816L19.8772 19.0978ZM17.5139 17.1406C18.7438 17.571 19.6599 18.0835 19.8772 19.0978L19.4861 19.1816C19.3191 18.4022 18.6171 17.9505 17.3818 17.5182L17.5139 17.1406ZM16.7493 16.8885C17.0057 16.9705 17.2607 17.052 17.5139 17.1406L17.3818 17.5182C17.1345 17.4316 16.8848 17.3517 16.6275 17.2695L16.7493 16.8885ZM16.7503 16.8888L16.7503 16.8888L16.6265 17.2691L16.6264 17.2691L16.7503 16.8888ZM16.611 16.8442L16.7493 16.8885L16.6274 17.2694L16.489 17.2251L16.611 16.8442ZM15.7296 16.5421C16.0104 16.6497 16.3116 16.7481 16.6111 16.8442L16.4889 17.2251C16.1894 17.129 15.8788 17.0276 15.5865 16.9156L15.7296 16.5421ZM14.2935 15.6133C14.6296 16.0614 15.1875 16.3345 15.7296 16.5421L15.5865 16.9156C15.0374 16.7053 14.3831 16.3995 13.9735 15.8533L14.2935 15.6133ZM14.1602 15.4355L14.2935 15.6133L13.9735 15.8533L13.8402 15.6755L14.1602 15.4355ZM14.2002 13V15.5555H13.8002V13H14.2002ZM15.3334 13.2005L14.0001 13.2L14.0003 12.8L15.3336 12.8005L15.3334 13.2005Z" fill="white" mask="url(#path-2-outside-1)"/>
<path d="M15.9003 7.99999C15.9003 10.9454 13.9346 12.9 12.0003 12.9C10.0661 12.9 8.10033 10.9454 8.10033 7.99999C8.10033 5.05461 10.0661 3.09999 12.0003 3.09999C13.9346 3.09999 15.9003 5.05461 15.9003 7.99999ZM12.0003 14.4333C15.0165 14.4333 17.4337 11.5362 17.4337 7.99999C17.4337 4.46375 15.0165 1.56666 12.0003 1.56666C8.98416 1.56666 6.56699 4.46375 6.56699 7.99999C6.56699 11.5362 8.98416 14.4333 12.0003 14.4333Z" fill="white" stroke="white" stroke-width="0.2"/>
</svg>
