<svg width="361" height="105" viewBox="0 0 361 105" fill="none" xmlns="http://www.w3.org/2000/svg">
<path d="M0 80.9359V1.02125H54.6901V14.5255H16.0724V33.4999H49.4473V47.0051H16.0724V80.9359H0Z" fill="#192C5A"/>
<path d="M61.0459 80.9359V1.02125H76.3364V80.9359H61.0459Z" fill="#192C5A"/>
<path d="M123.213 80.9359V72.228C119.082 78.4786 111.605 82.2734 104.014 82.2734C91.9609 81.7171 84.2584 75.5775 84.8177 59.728V23.0067H100.108V49.6827C100.108 57.8307 100.331 62.7427 100.89 64.64C102.117 68.2119 105.129 70.5546 109.705 70.5546C112.272 70.5546 114.617 69.887 116.737 68.4348C118.859 66.9827 120.197 65.3108 120.979 63.1879C121.76 61.0682 122.094 55.8228 122.094 47.452V23.0067H137.5V80.9359H123.213Z" fill="#192C5A"/>
<path d="M219.965 50.7988C219.965 63.1879 225.435 68.5468 232.241 68.5468C239.832 68.5468 245.639 62.7427 245.639 51.1348C245.639 39.1905 240.167 33.4999 232.577 33.4999C225.323 33.4999 219.965 39.0801 219.965 50.7988V50.7988ZM206.687 86.852H223.76C224.093 88.9718 224.764 90.3119 225.768 91.0906C227.22 92.0989 229.451 92.6546 232.577 92.6546C236.595 92.6546 239.611 92.0989 241.617 90.8682C242.956 90.0864 243.963 88.8598 244.631 87.0744C245.191 85.8442 245.412 83.504 245.412 80.0427V71.5588C240.836 77.8119 235.033 80.9359 228.001 80.9359C220.3 80.9359 214.16 77.6974 209.584 71.1135C206.013 65.8665 204.227 59.3947 204.227 51.6921C204.227 41.9812 206.572 34.504 211.259 29.4802C215.945 24.3479 221.751 21.7812 228.669 21.7812C235.812 21.7812 241.729 24.904 246.305 31.1545V23.0067H260.703V75.0187C260.703 88.7494 258.361 94.3291 254.231 98.2332C250.213 102.143 243.627 104.373 233.248 104.373C223.427 104.373 216.505 102.698 212.375 99.352C208.247 96.0041 206.687 86.852 206.687 86.852" fill="#192C5A"/>
<path d="M157.351 50.7988C157.351 63.1879 162.819 68.5468 169.625 68.5468C177.217 68.5468 183.023 62.7427 183.023 51.1348C183.023 39.1905 177.551 33.4999 169.963 33.4999C162.708 33.4999 157.351 39.0801 157.351 50.7988V50.7988ZM144.071 86.852H161.144C161.479 88.9718 162.149 90.3119 163.153 91.0906C164.605 92.0989 166.836 92.6546 169.963 92.6546C173.979 92.6546 176.995 92.0989 179.003 90.8682C180.34 90.0864 181.348 88.8598 182.016 87.0744C182.575 85.8442 182.797 83.504 182.797 80.0427V71.5588C178.221 77.8119 172.419 80.9359 165.387 80.9359C157.684 80.9359 151.545 77.6974 146.969 71.1135C143.397 65.8665 141.612 59.3947 141.612 51.6921C141.612 41.9812 143.957 34.504 148.644 29.4802C153.331 24.3479 159.136 21.7812 166.055 21.7812C173.197 21.7812 179.113 24.904 183.691 31.1545V23.0067H198.088V75.0187C198.088 88.7494 195.747 94.3291 191.615 98.2332C187.599 102.143 181.011 104.373 170.633 104.373C160.811 104.373 153.889 102.698 149.759 99.352C145.632 96.0041 144.071 86.852 144.071 86.852" fill="#192C5A"/>
<path d="M303.333 47.0051C302.997 38.1864 298.199 33.4999 291.948 33.4999C288.6 33.4999 285.809 34.7264 283.691 37.0707C281.456 39.528 280.341 42.8734 280.452 47.0051H303.333ZM302.439 62.5171H317.732C314.448 74.416 305.343 82.2734 292.505 82.2734C282.46 82.2734 274.984 78.9264 270.183 72.3384C266.388 67.0974 264.491 60.5094 264.491 52.4734C264.491 42.8734 266.947 35.3958 271.968 29.928C276.992 24.4588 283.353 21.7812 291.056 21.7812C308.132 21.7812 318.959 33.052 318.511 56.3827H280.119C280.452 65.4228 285.587 70.7802 292.731 70.7802C297.528 70.7802 300.767 68.3239 302.439 62.5171" fill="#192C5A"/>
<path d="M338.708 80.9359H323.417V23.0067H337.592V31.2666C342.505 23.5655 345.852 22.7135 350.875 21.7813C354.276 21.1469 356.921 22.0589 360.156 22.3802V37.0119C354.433 35.6307 351.208 35.5078 348.977 35.5078C346.856 35.5078 344.959 36.0666 343.509 37.2931C342.057 38.5229 340.831 40.6427 339.937 43.7666C339.156 46.7827 338.708 53.2546 338.708 63.0775V80.9359Z" fill="#192C5A"/>
<path d="M100.108 16.0775H84.8177V0.202579H100.108V16.0775" fill="#192C5A"/>
<path d="M137.5 16.0775H122.208V0.202579H137.5V16.0775Z" fill="#192C5A"/>
</svg>
